<svg width="27" height="27" viewBox="0 0 27 27" fill="none" xmlns="http://www.w3.org/2000/svg">
    <path d="M8.51096 0.107422H0.110962V8.50742H1.97796V1.97442H8.51096V0.107422Z" fill="black" />
    <path d="M0.110962 17.8418V26.2418H8.51096V24.3748H1.97796V17.8418H0.110962Z" fill="black" />
    <path d="M26.245 8.50742V0.107422H17.845V1.97442H24.378V8.50742H26.245Z" fill="black" />
    <path d="M17.845 26.2418H26.245V17.8418H24.378V24.3748H17.845V26.2418Z" fill="black" />
    <path
        d="M22.035 7.69532L13.635 3.02832C13.4932 2.94643 13.3323 2.90332 13.1685 2.90332C13.0047 2.90332 12.8439 2.94643 12.702 3.02832L4.30202 7.69532C4.16136 7.77874 4.04511 7.89767 3.9649 8.04018C3.88469 8.1827 3.84335 8.34379 3.84502 8.50732V17.8403C3.84527 18.0057 3.88948 18.1681 3.97312 18.3107C4.05676 18.4534 4.17683 18.5713 4.32102 18.6523L12.721 23.3193C12.8629 23.4012 13.0237 23.4443 13.1875 23.4443C13.3513 23.4443 13.5122 23.4012 13.654 23.3193L22.054 18.6523C22.1947 18.5689 22.3109 18.45 22.3911 18.3075C22.4713 18.1649 22.5127 18.0038 22.511 17.8403V8.50732C22.5108 8.34193 22.4666 8.17958 22.3829 8.0369C22.2993 7.89421 22.1792 7.77633 22.035 7.69532ZM13.177 4.90432L19.655 8.50432L13.177 12.1043L6.70002 8.50432L13.177 4.90432ZM5.71102 10.0943L12.244 13.7253V20.9253L5.71102 17.2903V10.0943ZM14.111 20.9213V13.7213L20.644 10.0903V17.2903L14.111 20.9213Z"
        fill="black" />
</svg>