<svg width="29" height="26" viewBox="0 0 29 26" fill="none" xmlns="http://www.w3.org/2000/svg">
    <path
        d="M9.84794 14.4216C9.84794 11.352 11.3986 9.81724 14.4998 9.81724C17.6011 9.81724 19.152 11.352 19.1525 14.4216C19.1525 17.4911 17.6019 19.0259 14.5006 19.0259C11.3994 19.0259 9.84848 17.4911 9.84794 14.4216ZM10.1193 0H18.8127L21.4614 2.84369H26.0799C26.4641 2.84077 26.8452 2.91408 27.2008 3.05934C27.5564 3.2046 27.8794 3.41893 28.1512 3.68983C28.4229 3.96074 28.6379 4.28282 28.7836 4.63733C28.9293 4.99185 29.0028 5.37171 28.9999 5.75482V23.0875C29.0027 23.4706 28.9291 23.8505 28.7834 24.205C28.6377 24.5595 28.4227 24.8816 28.151 25.1526C27.8793 25.4235 27.5563 25.6379 27.2007 25.7833C26.8451 25.9287 26.4641 26.0022 26.0799 25.9995H2.92063C2.53562 26.0069 2.15317 25.9356 1.79687 25.79C1.44056 25.6444 1.11796 25.4276 0.848953 25.1529C0.573467 24.8849 0.356043 24.5634 0.21012 24.2083C0.0641961 23.8532 -0.00712602 23.472 0.000561497 23.0883V5.75482C-0.00689067 5.37099 0.0646156 4.98971 0.21067 4.6345C0.356724 4.27928 0.574229 3.95767 0.849768 3.68949C1.1186 3.41484 1.44108 3.19809 1.79726 3.05261C2.15345 2.90713 2.53578 2.83603 2.92063 2.84369H7.47065L10.1193 0ZM14.4656 21.6665C15.4211 21.6791 16.3691 21.4963 17.251 21.1295C18.133 20.7627 18.9302 20.2196 19.5934 19.5337C20.2814 18.8725 20.8262 18.0777 21.1943 17.1985C21.5624 16.3193 21.7459 15.3742 21.7336 14.4216C21.7464 13.4689 21.5632 12.5238 21.1952 11.6445C20.8273 10.7653 20.2824 9.97053 19.5943 9.30944C18.9309 8.62367 18.1337 8.08064 17.2518 7.71383C16.3699 7.34702 15.4219 7.16421 14.4664 7.17667C13.5157 7.16225 12.5723 7.34431 11.6956 7.71138C10.819 8.07844 10.0281 8.62256 9.37281 9.30944C8.69355 9.97546 8.15679 10.7719 7.79498 11.6505C7.43316 12.5292 7.25379 13.4719 7.26772 14.4216C7.25427 15.3712 7.43385 16.3138 7.79564 17.1924C8.15743 18.071 8.69393 18.8674 9.37281 19.5337C10.0279 20.2208 10.8188 20.7651 11.6955 21.1321C12.5722 21.4992 13.5148 21.6812 14.4656 21.6665Z"
        fill="url(#paint0_linear_3_2318)" />
    <defs>
        <linearGradient id="paint0_linear_3_2318" x1="14.5" y1="0" x2="14.5" y2="13"
            gradientUnits="userSpaceOnUse">
            <stop stop-color="#C6D66A" />
            <stop offset="1" stop-color="#ED9054" />
        </linearGradient>
    </defs>
</svg>