<svg width="158" height="28" viewBox="0 0 158 28" fill="none" xmlns="http://www.w3.org/2000/svg">
<path d="M78.2 13.7736C78.6661 13.9629 79.1036 14.2159 79.5 14.5256C79.9105 14.8467 80.2529 15.2465 80.507 15.7016C80.791 16.2627 80.926 16.8873 80.899 17.5156C80.923 18.0394 80.8299 18.5621 80.6265 19.0454C80.423 19.5287 80.1144 19.9606 79.723 20.3096C78.7089 21.0642 77.4565 21.4275 76.196 21.3326C73.39 21.3326 71.8447 20.3909 71.56 18.5076L73.911 17.8076C73.9094 17.9582 73.9334 18.108 73.982 18.2506C74.0356 18.3991 74.1397 18.524 74.276 18.6036C74.4898 18.7216 74.7239 18.7986 74.966 18.8306C75.3784 18.8912 75.7952 18.9173 76.212 18.9086C76.6394 18.9223 77.0667 18.8775 77.482 18.7756C77.7336 18.7142 77.9689 18.5993 78.172 18.4386C78.3115 18.3246 78.4115 18.1696 78.458 17.9956C78.4924 17.8373 78.5095 17.6756 78.509 17.5136C78.5207 17.2637 78.4752 17.0143 78.376 16.7846C78.2742 16.5941 78.126 16.4324 77.945 16.3146C77.7004 16.1529 77.4371 16.0213 77.161 15.9226C76.847 15.8086 76.467 15.6596 76.017 15.4796L75.453 15.2366C75.061 15.0756 74.63 14.9076 74.164 14.7276C73.707 14.5539 73.2788 14.3122 72.894 14.0106C72.4867 13.688 72.1469 13.2884 71.894 12.8346C71.6091 12.2738 71.4741 11.649 71.502 11.0206C71.4756 10.4941 71.5675 9.96839 71.771 9.4821C71.9745 8.99581 72.2844 8.56133 72.678 8.2106C73.6978 7.4458 74.961 7.07795 76.232 7.1756C79.0013 7.1756 80.5373 8.10693 80.84 9.9696L78.489 10.6946C78.4913 10.5403 78.4686 10.3867 78.422 10.2396C78.3718 10.0873 78.2642 9.96067 78.122 9.8866C77.9107 9.77894 77.6829 9.70729 77.448 9.6746C77.0411 9.61197 76.6296 9.58454 76.218 9.5926C75.7893 9.5792 75.3607 9.62394 74.944 9.7256C74.6885 9.79095 74.4499 9.90991 74.244 10.0746C74.0985 10.1921 73.9936 10.3523 73.944 10.5326C73.9081 10.6921 73.8897 10.8551 73.889 11.0186C73.8789 11.2675 73.9258 11.5155 74.026 11.7436C74.125 11.9347 74.2722 12.0967 74.453 12.2136C74.6983 12.3741 74.9614 12.5057 75.237 12.6056C75.55 12.7236 75.923 12.8686 76.354 13.0486L76.918 13.2646L78.2 13.7736Z" fill="#86BE56"/>
<path d="M96.4801 17.2805C95.6993 18.9352 94.3091 20.224 92.6001 20.8776C90.8912 21.5312 88.9958 21.4989 87.3101 20.7875C86.4631 20.4353 85.6936 19.9202 85.0451 19.2715C84.4099 18.6221 83.9045 17.8574 83.5561 17.0185C83.1899 16.1507 83.0045 15.2173 83.0111 14.2755C83.0036 13.3248 83.189 12.3824 83.5561 11.5055C83.9032 10.6635 84.4086 9.8959 85.0451 9.24447C85.6981 8.58543 86.4759 8.06306 87.333 7.70783C88.1901 7.3526 89.1093 7.17162 90.0371 7.17547C91.4081 7.15649 92.7536 7.54641 93.9021 8.29547C95.0116 9.01017 95.9004 10.0195 96.4691 11.2105L94.1181 11.9355C93.7104 11.2377 93.1319 10.6551 92.4371 10.2425C91.7293 9.81122 90.9148 9.58707 90.0861 9.59547C89.4628 9.59083 88.8453 9.71474 88.2721 9.95947C87.1552 10.431 86.2674 11.3212 85.7991 12.4395C85.4379 13.2959 85.3402 14.2406 85.5183 15.1529C85.6964 16.0652 86.1423 16.9037 86.7991 17.5615C87.2222 17.9871 87.7238 18.3267 88.2761 18.5615C88.8495 18.8053 89.467 18.9282 90.0901 18.9225C90.9182 18.9304 91.7322 18.7078 92.4411 18.2795C93.1397 17.8599 93.7186 17.2675 94.1221 16.5595L96.4801 17.2805Z" fill="#C6D66A"/>
<path d="M112.436 7.1748V21.3288H110.021V19.5948C109.389 20.135 108.671 20.5665 107.897 20.8718C107.092 21.1885 106.234 21.348 105.369 21.3418C104.419 21.3487 103.477 21.1605 102.602 20.7888C100.897 20.0755 99.5409 18.7218 98.824 17.0188C98.4538 16.152 98.2659 15.2183 98.272 14.2758C98.265 13.3245 98.4528 12.3818 98.824 11.5058C99.3641 10.2179 100.274 9.11936 101.439 8.34924C102.604 7.57912 103.972 7.17212 105.368 7.17981C106.232 7.17285 107.09 7.32961 107.896 7.64181C108.668 7.94322 109.386 8.36957 110.02 8.9038V7.17881L112.436 7.1748ZM105.355 18.9308C105.979 18.9365 106.598 18.8136 107.173 18.5698C107.727 18.3361 108.23 17.9964 108.654 17.5698C109.312 16.9129 109.759 16.0744 109.937 15.1617C110.115 14.2491 110.017 13.304 109.654 12.4478C109.184 11.3275 108.294 10.4358 107.174 9.96381C106.318 9.60264 105.373 9.50488 104.461 9.68299C103.548 9.8611 102.71 10.307 102.052 10.9638C101.626 11.3897 101.287 11.894 101.052 12.4488C100.569 13.5894 100.559 14.875 101.024 16.0229C101.489 17.1708 102.391 18.087 103.532 18.5698C104.109 18.8104 104.729 18.9306 105.354 18.9228L105.355 18.9308Z" fill="#F4DE61"/>
<path d="M122.151 7.17502C123.537 7.17067 124.893 7.5767 126.049 8.34193C127.204 9.10715 128.107 10.1973 128.644 11.475C129.006 12.3442 129.193 13.2764 129.193 14.218C129.193 15.1596 129.006 16.0919 128.644 16.961C128.107 18.2387 127.204 19.3289 126.049 20.0941C124.893 20.8593 123.537 21.2654 122.151 21.261C121.291 21.2686 120.437 21.1075 119.639 20.787C118.868 20.4756 118.155 20.0387 117.527 19.494V27.445H115.109V7.17502H117.527V8.91902C118.156 8.38151 118.87 7.95111 119.639 7.64502C120.438 7.32771 121.291 7.16811 122.151 7.17502ZM122.151 18.841C122.769 18.8453 123.382 18.7224 123.951 18.48C124.494 18.2415 124.988 17.9022 125.405 17.48C125.832 17.0596 126.172 16.559 126.405 16.007C126.65 15.4353 126.774 14.819 126.769 14.197C126.772 13.5853 126.648 12.9795 126.405 12.418C126.171 11.8653 125.831 11.3636 125.405 10.941C124.985 10.527 124.492 10.1947 123.951 9.96102C123.38 9.72377 122.767 9.60164 122.148 9.60164C121.53 9.60164 120.917 9.72377 120.346 9.96102C119.8 10.198 119.303 10.534 118.88 10.952C118.458 11.3762 118.122 11.8777 117.889 12.429C117.646 12.9906 117.522 13.5963 117.525 14.208C117.52 14.83 117.644 15.4463 117.889 16.018C118.121 16.5687 118.457 17.0689 118.88 17.491C119.302 17.9134 119.799 18.2526 120.346 18.491C120.917 18.7299 121.532 18.8497 122.151 18.841Z" fill="#F6B85F"/>
<path d="M144.541 17.7615C143.938 18.835 143.062 19.7299 142.002 20.3555C140.91 21.0085 139.658 21.345 138.385 21.3275C137.435 21.3344 136.493 21.1462 135.618 20.7745C133.92 20.0575 132.566 18.7106 131.84 17.0165C131.469 16.1502 131.28 15.2169 131.285 14.2745C131.278 13.3231 131.467 12.3804 131.838 11.5045C132.38 10.2201 133.289 9.12408 134.451 8.35347C135.613 7.58287 136.976 7.17188 138.371 7.17188C139.765 7.17188 141.128 7.58287 142.29 8.35347C143.452 9.12408 144.361 10.2201 144.903 11.5045C145.276 12.3802 145.465 13.3229 145.459 14.2745C145.457 14.7609 145.411 15.2462 145.322 15.7245H133.977C134.277 16.6481 134.861 17.4532 135.646 18.0245C136.436 18.6198 137.4 18.9363 138.389 18.9245C139.133 18.9319 139.868 18.7572 140.529 18.4155C141.164 18.0927 141.713 17.6222 142.129 17.0435L144.541 17.7615ZM138.385 9.59148C137.85 9.59053 137.319 9.68746 136.818 9.87748C136.324 10.0614 135.865 10.3263 135.458 10.6615C135.054 10.9928 134.709 11.3905 134.439 11.8375C134.16 12.2863 133.964 12.7814 133.859 13.2995H142.974C142.867 12.7802 142.667 12.2848 142.382 11.8375C142.1 11.3945 141.751 10.9978 141.348 10.6615C140.941 10.3263 140.482 10.0614 139.988 9.87748C139.477 9.68362 138.935 9.58663 138.388 9.59148H138.385Z" fill="#ED9054"/>
<path d="M154.382 13.7726C154.848 13.9618 155.286 14.2149 155.682 14.5246C156.093 14.8457 156.435 15.2455 156.689 15.7006C156.975 16.2609 157.11 16.8861 157.081 17.5146C157.107 18.0386 157.015 18.5618 156.811 19.0455C156.608 19.5291 156.298 19.9608 155.905 20.3086C154.893 21.0638 153.642 21.4288 152.383 21.3366C149.575 21.3366 148.028 20.3976 147.743 18.5196L150.094 17.8066C150.092 17.9572 150.116 18.107 150.165 18.2496C150.221 18.3986 150.327 18.5235 150.465 18.6026C150.679 18.7211 150.913 18.7982 151.155 18.8296C151.566 18.8902 151.982 18.9163 152.397 18.9076C152.824 18.9212 153.252 18.8765 153.667 18.7746C153.919 18.7141 154.155 18.5991 154.357 18.4376C154.498 18.3247 154.598 18.1692 154.643 17.9946C154.679 17.8363 154.697 17.6747 154.698 17.5126C154.709 17.2623 154.662 17.0129 154.561 16.7836C154.46 16.594 154.313 16.4325 154.134 16.3136C153.889 16.153 153.626 16.0215 153.35 15.9216C153.037 15.8076 152.656 15.6586 152.206 15.4786L151.642 15.2356C151.25 15.0746 150.819 14.9066 150.353 14.7266C149.888 14.5472 149.453 14.2973 149.064 13.9856C148.658 13.6619 148.318 13.2625 148.064 12.8096C147.779 12.2488 147.644 11.6239 147.672 10.9956C147.646 10.4691 147.738 9.94334 147.941 9.45705C148.145 8.97076 148.454 8.53628 148.848 8.18555C149.867 7.42285 151.128 7.05517 152.398 7.15055C155.17 7.15055 156.706 8.08189 157.006 9.94455L154.655 10.6696C154.656 10.5151 154.632 10.3614 154.584 10.2146C154.534 10.0623 154.426 9.93562 154.284 9.86155C154.073 9.75389 153.845 9.68224 153.61 9.64955C153.203 9.58692 152.792 9.55949 152.38 9.56755C151.953 9.55391 151.525 9.59865 151.11 9.70055C150.853 9.76578 150.613 9.88473 150.405 10.0496C150.261 10.1681 150.156 10.3279 150.105 10.5076C150.069 10.6671 150.051 10.83 150.05 10.9936C150.04 11.2425 150.087 11.4905 150.187 11.7186C150.288 11.9098 150.436 12.0718 150.618 12.1886C150.856 12.3488 151.113 12.4804 151.382 12.5806C151.695 12.6986 152.068 12.8436 152.499 13.0236L153.063 13.2396L154.382 13.7726Z" fill="#E75858"/>
<path d="M15.3651 7.17463C16.1834 7.16424 16.9915 7.35809 17.7161 7.73863C18.4153 8.11052 19.0344 8.61648 19.5381 9.22763C20.0474 9.84958 20.4453 10.555 20.7141 11.3126C20.9861 12.0532 21.1266 12.8357 21.1291 13.6246V21.3246H18.7121V13.6246C18.7089 12.6336 18.3827 11.6706 17.7831 10.8816C17.493 10.5089 17.1321 10.1972 16.7211 9.96463C16.3146 9.72308 15.8499 9.59721 15.3771 9.60063C14.9063 9.59817 14.4431 9.71846 14.0331 9.94963C13.6158 10.1792 13.2462 10.4864 12.9441 10.8546C12.6365 11.2333 12.3954 11.6613 12.2311 12.1206C12.0647 12.559 11.9783 13.0237 11.9761 13.4926V21.3296H9.57005V13.6296C9.57027 13.1401 9.48812 12.6539 9.32705 12.1916C9.16875 11.7243 8.93425 11.2864 8.63305 10.8956C8.3446 10.5186 7.98518 10.2017 7.57505 9.96263C7.16588 9.72026 6.69862 9.59343 6.22305 9.59563C5.751 9.59266 5.28635 9.71296 4.87505 9.94463C4.46002 10.178 4.0929 10.4878 3.79305 10.8576C3.48624 11.2338 3.24518 11.6591 3.08005 12.1156C2.91169 12.5564 2.82429 13.0239 2.82205 13.4956V21.3326H0.404053V13.4956C0.407241 12.7254 0.553384 11.9625 0.835053 11.2456C1.11923 10.5069 1.52481 9.82076 2.03505 9.21563C2.54494 8.60593 3.17111 8.10384 3.87705 7.73863C4.60295 7.3616 5.4101 7.16797 6.22805 7.17463C7.15209 7.16097 8.06067 7.41258 8.84605 7.89963C9.61427 8.37034 10.2708 9.00265 10.7701 9.75263C11.2845 9.00389 11.9501 8.37129 12.7241 7.89563C13.5169 7.40636 14.4335 7.15475 15.3651 7.17063V7.17463Z" fill="#E36CA5"/>
<path d="M69.372 0.55957V21.3286H66.954V19.5926C66.3209 20.132 65.6033 20.5634 64.83 20.8696C64.0252 21.1855 63.1676 21.345 62.303 21.3396C61.3605 21.3445 60.427 21.1563 59.56 20.7866C57.851 20.0747 56.4892 18.7212 55.767 17.0166C55.3978 16.1496 55.211 15.2159 55.218 14.2736C55.21 13.3224 55.3968 12.3797 55.767 11.5036C56.4871 9.80084 57.8423 8.44567 59.545 7.72557C60.4128 7.359 61.346 7.17224 62.288 7.17657C63.1519 7.17048 64.0092 7.32722 64.815 7.63857C65.5867 7.94162 66.3038 8.36856 66.938 8.90257V0.55957H69.372ZM62.318 18.9186C62.9409 18.9244 63.5583 18.8023 64.132 18.5596C64.6844 18.3248 65.1859 17.9852 65.609 17.5596C66.2658 16.9018 66.7117 16.0633 66.8898 15.151C67.0679 14.2387 66.9702 13.2941 66.609 12.4376C66.1328 11.3169 65.2348 10.4286 64.109 9.96457C63.2551 9.60393 62.3129 9.50644 61.4033 9.6846C60.4936 9.86276 59.6578 10.3084 59.003 10.9646C58.5812 11.3881 58.2459 11.8898 58.016 12.4416C57.7756 13.0182 57.6518 13.6368 57.6518 14.2616C57.6518 14.8863 57.7756 15.5049 58.016 16.0816C58.4858 17.1953 59.369 18.0835 60.48 18.5596C61.0509 18.8023 61.6656 18.9252 62.286 18.9206L62.318 18.9186Z" fill="#6CC1D1"/>
<path d="M54.771 16.626C54.6323 17.1576 54.4634 17.6807 54.265 18.193C54.0742 18.6508 53.8398 19.0891 53.565 19.502C53.5176 19.5746 53.456 19.6369 53.384 19.6854C53.3121 19.7338 53.2312 19.7673 53.146 19.784C52.9719 19.8144 52.7928 19.7764 52.646 19.678L52.223 19.368C52.0834 19.2727 51.9872 19.126 51.9555 18.9599C51.9239 18.7939 51.9593 18.622 52.054 18.482C52.2729 18.1554 52.4604 17.8089 52.614 17.447C52.77 17.0374 52.9009 16.6186 53.006 16.193C53.0404 16.0528 53.1209 15.9283 53.2346 15.8394C53.3484 15.7505 53.4887 15.7025 53.633 15.703C53.6773 15.6993 53.7218 15.6993 53.766 15.703L54.271 15.809C54.356 15.8264 54.4367 15.8606 54.5082 15.9098C54.5797 15.9589 54.6405 16.0219 54.6872 16.0951C54.7338 16.1682 54.7653 16.25 54.7797 16.3355C54.7941 16.4211 54.7912 16.5086 54.771 16.593V16.626Z" fill="#53AECD"/>
<path d="M25.6711 7.01727C25.6174 6.94671 25.5783 6.86614 25.5562 6.78028C25.534 6.69442 25.5292 6.605 25.5421 6.51727C25.5544 6.42999 25.5848 6.34624 25.6313 6.27135C25.6778 6.19646 25.7394 6.13207 25.8121 6.08227C26.2566 5.76268 26.7212 5.47208 27.2031 5.21227C27.6429 4.98491 28.1033 4.79975 28.5781 4.65927C28.7471 4.61016 28.9286 4.62994 29.0831 4.71427C29.1587 4.75505 29.2252 4.81086 29.2785 4.87827C29.3319 4.94568 29.3708 5.02326 29.3931 5.10627L29.5261 5.60627C29.5696 5.76893 29.5476 5.94217 29.4647 6.08876C29.3819 6.23536 29.2449 6.34361 29.0831 6.39027C28.7055 6.49961 28.3395 6.64529 27.9901 6.82527C27.6067 7.03399 27.2376 7.26783 26.8851 7.52527C26.7718 7.60901 26.634 7.65296 26.4931 7.65027C26.3941 7.65047 26.2963 7.62795 26.2074 7.58443C26.1184 7.54092 26.0407 7.47757 25.9801 7.39927L25.6711 7.01727Z" fill="#A273A8"/>
<path d="M45.076 22.8953V23.4083C45.0731 23.4965 45.0523 23.5832 45.0148 23.663C44.9773 23.7429 44.924 23.8144 44.858 23.873C44.7921 23.9317 44.7149 23.9763 44.6312 24.0042C44.5475 24.0321 44.459 24.0427 44.371 24.0353C43.8249 23.9868 43.282 23.907 42.745 23.7963C42.2621 23.6868 41.7909 23.5308 41.338 23.3303C41.2575 23.2959 41.1847 23.2455 41.124 23.1823C41.0634 23.1191 41.0161 23.0442 40.985 22.9623C40.9266 22.796 40.9352 22.6134 41.009 22.4533L41.228 21.9873C41.2811 21.8762 41.3644 21.7824 41.4685 21.7166C41.5725 21.6508 41.693 21.6157 41.816 21.6153C41.9067 21.6141 41.9965 21.6329 42.079 21.6703C42.4362 21.8373 42.809 21.9686 43.192 22.0623C43.6211 22.1493 44.0553 22.2081 44.492 22.2383C44.6542 22.2541 44.8045 22.3306 44.9127 22.4524C45.021 22.5742 45.0793 22.7324 45.076 22.8953Z" fill="#53AECD"/>
<path d="M24.6991 9.83896C24.4795 10.1651 24.2919 10.5117 24.1391 10.874C23.981 11.2815 23.85 11.6991 23.7471 12.124C23.7128 12.2642 23.6322 12.3887 23.5185 12.4776C23.4048 12.5665 23.2644 12.6145 23.1201 12.614C23.0746 12.6199 23.0286 12.6199 22.9831 12.614L22.4771 12.514C22.3069 12.4762 22.1586 12.3724 22.0649 12.2254C21.9711 12.0784 21.9396 11.9002 21.9771 11.73C22.115 11.1978 22.2849 10.6745 22.4861 10.163C22.6775 9.70547 22.9119 9.26717 23.1861 8.85396C23.2341 8.78099 23.2963 8.71841 23.3689 8.66997C23.4416 8.62152 23.5233 8.58819 23.6091 8.57196C23.7832 8.54115 23.9625 8.57915 24.1091 8.67797L24.5321 8.97796C24.663 9.07429 24.7528 9.21633 24.7837 9.37585C24.8147 9.53537 24.7845 9.7007 24.6991 9.83896Z" fill="#A273A8"/>
<path d="M31.667 5.40311V4.88611C31.6704 4.79822 31.6915 4.71191 31.7292 4.63242C31.7668 4.55293 31.8202 4.48192 31.8861 4.42367C31.9521 4.36543 32.0291 4.32116 32.1126 4.29356C32.1961 4.26597 32.2844 4.25561 32.372 4.26311C32.9184 4.30782 33.4614 4.38631 33.998 4.49811C34.4822 4.60809 34.9546 4.76413 35.409 4.96411C35.4891 4.9992 35.5613 5.04998 35.6214 5.11344C35.6815 5.17691 35.7283 5.25179 35.7589 5.33364C35.7896 5.41549 35.8036 5.50266 35.8 5.58999C35.7964 5.67733 35.7753 5.76306 35.738 5.84211L35.511 6.31211C35.4623 6.42712 35.3811 6.52543 35.2774 6.59504C35.1737 6.66466 35.0519 6.70256 34.927 6.70411C34.8379 6.7033 34.7498 6.6846 34.668 6.64911C34.3102 6.48031 33.9359 6.34894 33.551 6.25711C33.1219 6.1705 32.6877 6.11171 32.251 6.08111C32.0851 6.06511 31.9317 5.98567 31.8229 5.85935C31.7141 5.73304 31.6583 5.5696 31.667 5.40311Z" fill="#A273A8"/>
<path d="M51.068 21.2926C51.122 21.3622 51.1613 21.442 51.1837 21.5271C51.206 21.6123 51.211 21.7011 51.1982 21.7883C51.1854 21.8754 51.1551 21.959 51.1092 22.0342C51.0633 22.1093 51.0027 22.1744 50.931 22.2256C50.4853 22.5434 50.0208 22.834 49.54 23.0956C49.0998 23.3252 48.6379 23.5105 48.161 23.6486C48.0774 23.6738 47.9897 23.6819 47.9029 23.6725C47.8161 23.663 47.7322 23.6362 47.656 23.5936C47.5054 23.5084 47.3942 23.3677 47.346 23.2016L47.213 22.6966C47.1695 22.5339 47.1915 22.3607 47.2744 22.2141C47.3572 22.0675 47.4942 21.9592 47.656 21.9126C48.0344 21.8057 48.4007 21.6599 48.749 21.4776C49.1344 21.2702 49.505 21.0363 49.858 20.7776C49.9707 20.6927 50.109 20.6487 50.25 20.6526C50.3483 20.653 50.4453 20.6758 50.5335 20.7193C50.6217 20.7628 50.6988 20.8258 50.759 20.9036L51.068 21.2926Z" fill="#53AECD"/>
<path d="M45.151 21.2149C43.6216 21.2155 42.1334 20.719 40.9107 19.8002C39.6879 18.8814 38.797 17.5901 38.372 16.1209C37.8953 17.7498 36.8472 19.1522 35.4201 20.0707C33.9929 20.9893 32.2823 21.3624 30.6023 21.1216C28.9223 20.8808 27.3854 20.0423 26.2737 18.7599C25.1619 17.4774 24.5499 15.8371 24.5499 14.1399C24.5499 12.4427 25.1619 10.8024 26.2737 9.52C27.3854 8.23759 28.9223 7.39906 30.6023 7.15827C32.2823 6.91749 33.9929 7.29059 35.4201 8.20913C36.8472 9.12767 37.8953 10.53 38.372 12.1589C38.7407 10.9033 39.4514 9.77503 40.4247 8.90027C41.398 8.02551 42.5954 7.43879 43.8831 7.20572C45.1708 6.97264 46.498 7.10242 47.7162 7.58053C48.9343 8.05863 49.9954 8.86622 50.7808 9.91295C51.5662 10.9597 52.0449 12.2043 52.1634 13.5075C52.2818 14.8108 52.0354 16.1213 51.4516 17.2925C50.8677 18.4636 49.9696 19.4493 48.8576 20.1392C47.7456 20.8291 46.4636 21.196 45.155 21.1989L45.151 21.2149Z" fill="url(#paint0_linear_3_2274)"/>
<defs>
<linearGradient id="paint0_linear_3_2274" x1="24.5223" y1="14.1651" x2="52.22" y2="14.1651" gradientUnits="userSpaceOnUse">
<stop stop-color="#7466A4"/>
<stop offset="0.5" stop-color="#4F5EA1"/>
<stop offset="1" stop-color="#53ACCD"/>
</linearGradient>
</defs>
</svg>
