<svg width="30" height="30" viewBox="0 0 30 30" fill="none" xmlns="http://www.w3.org/2000/svg">
<path d="M2.78003 6.17896C2.78003 5.9331 2.8777 5.69728 3.05154 5.52344C3.22539 5.34959 3.46118 5.25195 3.70703 5.25195H19.772C20.0179 5.25195 20.2537 5.34959 20.4275 5.52344C20.6014 5.69728 20.699 5.9331 20.699 6.17896C20.699 6.42481 20.6014 6.66063 20.4275 6.83447C20.2537 7.00832 20.0179 7.10596 19.772 7.10596H3.70703C3.46118 7.10596 3.22539 7.00832 3.05154 6.83447C2.8777 6.66063 2.78003 6.42481 2.78003 6.17896ZM25.95 13.903H3.70703C3.46118 13.903 3.22539 14.0006 3.05154 14.1744C2.8777 14.3483 2.78003 14.5841 2.78003 14.83C2.78003 15.0758 2.8777 15.3116 3.05154 15.4855C3.22539 15.6593 3.46118 15.757 3.70703 15.757H25.95C26.1959 15.757 26.4317 15.6593 26.6055 15.4855C26.7794 15.3116 26.877 15.0758 26.877 14.83C26.877 14.5841 26.7794 14.3483 26.6055 14.1744C26.4317 14.0006 26.1959 13.903 25.95 13.903ZM14.828 22.553H3.70703C3.46118 22.553 3.22539 22.6506 3.05154 22.8245C2.8777 22.9983 2.78003 23.2341 2.78003 23.48C2.78003 23.7258 2.8777 23.9617 3.05154 24.1355C3.22539 24.3093 3.46118 24.407 3.70703 24.407H14.83C15.0759 24.407 15.3117 24.3093 15.4855 24.1355C15.6594 23.9617 15.757 23.7258 15.757 23.48C15.757 23.2341 15.6594 22.9983 15.4855 22.8245C15.3117 22.6506 15.0759 22.553 14.83 22.553H14.828Z" fill="#41416E"/>
</svg>
