<svg width="325" height="123" viewBox="0 0 325 123" fill="none" xmlns="http://www.w3.org/2000/svg">
<path d="M8.96023 28.3145H0.863636L9.9858 0.678089H20.2415L29.3636 28.3145H21.267L15.2216 8.28889H15.0057L8.96023 28.3145ZM7.44886 17.411H22.6705V23.0247H7.44886V17.411ZM30.1254 28.3145V0.678089H42.0544C44.1055 0.678089 45.9002 1.05143 47.4386 1.79812C48.977 2.5448 50.1735 3.61985 51.0281 5.02326C51.8827 6.42667 52.31 8.10896 52.31 10.0701C52.31 12.0493 51.8692 13.7181 50.9876 15.0765C50.115 16.435 48.887 17.4605 47.3037 18.1532C45.7293 18.8459 43.8896 19.1923 41.7845 19.1923H34.6595V13.3627H40.2731C41.1547 13.3627 41.9059 13.2548 42.5267 13.0389C43.1564 12.814 43.6377 12.4586 43.9706 11.9728C44.3124 11.487 44.4833 10.8528 44.4833 10.0701C44.4833 9.27847 44.3124 8.63524 43.9706 8.14045C43.6377 7.63666 43.1564 7.26781 42.5267 7.03391C41.9059 6.79101 41.1547 6.66957 40.2731 6.66957H37.6282V28.3145H30.1254ZM46.3186 15.6298L53.2277 28.3145H45.0771L38.3299 15.6298H46.3186ZM66.8353 0.678089L72.5029 20.1639H72.7189L78.3865 0.678089H86.8609L77.7387 28.3145H67.4831L58.3609 0.678089H66.8353ZM95.0277 28.6923C92.8146 28.6923 90.9074 28.2695 89.3061 27.4238C87.7137 26.5692 86.4858 25.3457 85.6221 23.7534C84.7675 22.152 84.3402 20.2359 84.3402 18.0048C84.3402 15.8637 84.772 13.9925 85.6356 12.3912C86.4993 10.7898 87.7182 9.54386 89.2926 8.65323C90.8669 7.76261 92.7246 7.31729 94.8657 7.31729C96.4311 7.31729 97.848 7.56019 99.1164 8.04599C100.385 8.53178 101.469 9.23798 102.369 10.1646C103.268 11.0822 103.961 12.1977 104.447 13.5112C104.932 14.8246 105.175 16.3045 105.175 17.9508V19.6781H86.6612V15.5758H98.3203C98.3113 14.9821 98.1583 14.4603 97.8615 14.0105C97.5736 13.5517 97.1823 13.1963 96.6875 12.9444C96.2017 12.6835 95.6484 12.5531 95.0277 12.5531C94.4249 12.5531 93.8717 12.6835 93.3679 12.9444C92.8641 13.1963 92.4592 13.5472 92.1534 13.997C91.8565 14.4468 91.6991 14.9731 91.6811 15.5758V20.002C91.6811 20.6677 91.8205 21.2614 92.0994 21.7832C92.3783 22.305 92.7786 22.7143 93.3004 23.0112C93.8222 23.3081 94.4519 23.4565 95.1896 23.4565C95.7024 23.4565 96.1702 23.3845 96.593 23.2406C97.0248 23.0966 97.3937 22.8897 97.6995 22.6199C98.0054 22.341 98.2303 22.0081 98.3743 21.6213H105.175C104.941 23.0607 104.388 24.3111 103.516 25.3727C102.643 26.4252 101.487 27.2439 100.048 27.8287C98.6172 28.4044 96.9439 28.6923 95.0277 28.6923ZM113.764 16.6554V28.3145H106.315V7.58718H113.386V11.5275H113.602C114.052 10.2141 114.843 9.18401 115.977 8.43732C117.119 7.69064 118.451 7.31729 119.971 7.31729C121.438 7.31729 122.711 7.65465 123.79 8.32937C124.879 8.99509 125.72 9.9127 126.314 11.0822C126.916 12.2517 127.213 13.5877 127.204 15.09V28.3145H119.755V16.6554C119.764 15.6298 119.503 14.8246 118.973 14.2399C118.451 13.6551 117.722 13.3627 116.787 13.3627C116.175 13.3627 115.64 13.4977 115.181 13.7676C114.731 14.0285 114.385 14.4063 114.142 14.9011C113.899 15.3869 113.773 15.9716 113.764 16.6554ZM142.422 19.2463V7.58718H149.871V28.3145H142.8V24.3741H142.584C142.134 25.6966 141.347 26.7311 140.222 27.4778C139.098 28.2155 137.762 28.5843 136.214 28.5843C134.766 28.5843 133.497 28.2515 132.409 27.5858C131.329 26.92 130.488 26.0024 129.886 24.8329C129.292 23.6634 128.99 22.323 128.981 20.8116V7.58718H136.43V19.2463C136.439 20.2718 136.7 21.077 137.213 21.6618C137.735 22.2465 138.463 22.5389 139.399 22.5389C140.02 22.5389 140.555 22.4084 141.005 22.1475C141.464 21.8777 141.814 21.4998 142.057 21.014C142.309 20.5192 142.431 19.93 142.422 19.2463ZM161.691 28.6923C159.478 28.6923 157.571 28.2695 155.969 27.4238C154.377 26.5692 153.149 25.3457 152.285 23.7534C151.431 22.152 151.003 20.2359 151.003 18.0048C151.003 15.8637 151.435 13.9925 152.299 12.3912C153.163 10.7898 154.382 9.54386 155.956 8.65323C157.53 7.76261 159.388 7.31729 161.529 7.31729C163.094 7.31729 164.511 7.56019 165.78 8.04599C167.048 8.53178 168.132 9.23798 169.032 10.1646C169.931 11.0822 170.624 12.1977 171.11 13.5112C171.596 14.8246 171.839 16.3045 171.839 17.9508V19.6781H153.324V15.5758H164.984C164.975 14.9821 164.822 14.4603 164.525 14.0105C164.237 13.5517 163.846 13.1963 163.351 12.9444C162.865 12.6835 162.312 12.5531 161.691 12.5531C161.088 12.5531 160.535 12.6835 160.031 12.9444C159.527 13.1963 159.123 13.5472 158.817 13.997C158.52 14.4468 158.362 14.9731 158.344 15.5758V20.002C158.344 20.6677 158.484 21.2614 158.763 21.7832C159.042 22.305 159.442 22.7143 159.964 23.0112C160.485 23.3081 161.115 23.4565 161.853 23.4565C162.366 23.4565 162.833 23.3845 163.256 23.2406C163.688 23.0966 164.057 22.8897 164.363 22.6199C164.669 22.341 164.894 22.0081 165.038 21.6213H171.839C171.605 23.0607 171.052 24.3111 170.179 25.3727C169.306 26.4252 168.15 27.2439 166.711 27.8287C165.28 28.4044 163.607 28.6923 161.691 28.6923ZM193.438 9.31445C193.366 8.41483 193.029 7.71313 192.426 7.20934C191.833 6.70555 190.928 6.45366 189.714 6.45366C188.94 6.45366 188.306 6.54812 187.811 6.73704C187.325 6.91696 186.966 7.16436 186.732 7.47922C186.498 7.79409 186.376 8.15394 186.367 8.55877C186.349 8.89163 186.408 9.193 186.543 9.46289C186.687 9.72378 186.912 9.96218 187.217 10.1781C187.523 10.385 187.915 10.5739 188.391 10.7449C188.868 10.9158 189.435 11.0687 190.092 11.2037L192.359 11.6895C193.888 12.0133 195.197 12.4406 196.286 12.9714C197.374 13.5022 198.265 14.1274 198.958 14.8471C199.65 15.5578 200.159 16.3585 200.482 17.2491C200.815 18.1397 200.986 19.1113 200.995 20.1639C200.986 21.9811 200.532 23.5195 199.632 24.7789C198.733 26.0384 197.446 26.9965 195.773 27.6532C194.109 28.31 192.107 28.6383 189.768 28.6383C187.366 28.6383 185.27 28.283 183.48 27.5723C181.698 26.8616 180.313 25.7685 179.323 24.2931C178.343 22.8088 177.848 20.9106 177.839 18.5985H184.964C185.009 19.4442 185.22 20.1549 185.598 20.7306C185.976 21.3064 186.507 21.7427 187.19 22.0396C187.883 22.3365 188.706 22.4849 189.66 22.4849C190.461 22.4849 191.131 22.3859 191.671 22.188C192.21 21.9901 192.62 21.7157 192.899 21.3649C193.177 21.014 193.321 20.6137 193.33 20.1639C193.321 19.7411 193.182 19.3722 192.912 19.0574C192.651 18.7335 192.219 18.4456 191.617 18.1937C191.014 17.9328 190.2 17.6899 189.174 17.465L186.421 16.8713C183.974 16.3405 182.045 15.4544 180.632 14.2129C179.229 12.9624 178.532 11.2576 178.541 9.09854C178.532 7.34428 178.999 5.81043 179.944 4.49698C180.898 3.17454 182.216 2.14447 183.898 1.40678C185.589 0.669092 187.528 0.300248 189.714 0.300248C191.945 0.300248 193.875 0.67359 195.503 1.42028C197.131 2.16696 198.386 3.21952 199.268 4.57795C200.159 5.92738 200.608 7.50621 200.617 9.31445H193.438ZM212.043 28.6923C209.794 28.6923 207.869 28.247 206.267 27.3564C204.666 26.4567 203.438 25.2063 202.583 23.6049C201.729 21.9946 201.301 20.1279 201.301 18.0048C201.301 15.8817 201.729 14.0195 202.583 12.4181C203.438 10.8078 204.666 9.55735 206.267 8.66672C207.869 7.7671 209.794 7.31729 212.043 7.31729C214.076 7.31729 215.835 7.68614 217.319 8.42383C218.813 9.15252 219.969 10.1871 220.787 11.5275C221.606 12.859 222.02 14.4243 222.029 16.2235H215.12C215.021 15.135 214.706 14.3073 214.175 13.7406C213.653 13.1648 212.979 12.877 212.151 12.877C211.503 12.877 210.936 13.0659 210.451 13.4437C209.965 13.8126 209.587 14.3748 209.317 15.1305C209.047 15.8772 208.912 16.8173 208.912 17.9508C208.912 19.0843 209.047 20.0289 209.317 20.7846C209.587 21.5313 209.965 22.0936 210.451 22.4714C210.936 22.8403 211.503 23.0247 212.151 23.0247C212.7 23.0247 213.185 22.8987 213.608 22.6468C214.031 22.3859 214.373 22.0081 214.634 21.5133C214.904 21.0095 215.066 20.3978 215.12 19.6781H222.029C222.002 21.5043 221.583 23.0967 220.774 24.4551C219.964 25.8045 218.817 26.8481 217.333 27.5858C215.857 28.3234 214.094 28.6923 212.043 28.6923ZM228.978 28.6383C227.655 28.6383 226.486 28.4224 225.469 27.9906C224.462 27.5498 223.67 26.8841 223.094 25.9934C222.518 25.1028 222.231 23.9693 222.231 22.5929C222.231 21.4593 222.424 20.4922 222.811 19.6916C223.198 18.8819 223.737 18.2207 224.43 17.7079C225.123 17.1951 225.928 16.8038 226.846 16.5339C227.772 16.264 228.771 16.0886 229.841 16.0076C231.002 15.9177 231.933 15.8097 232.635 15.6838C233.345 15.5488 233.858 15.3644 234.173 15.1305C234.488 14.8876 234.645 14.5682 234.645 14.1724V14.1184C234.645 13.5787 234.438 13.1648 234.025 12.877C233.611 12.5891 233.08 12.4451 232.432 12.4451C231.722 12.4451 231.141 12.6026 230.691 12.9174C230.251 13.2233 229.985 13.6956 229.895 14.3343H223.04C223.13 13.0749 223.53 11.9144 224.241 10.8528C224.961 9.78226 226.009 8.92762 227.385 8.28889C228.762 7.64116 230.48 7.31729 232.54 7.31729C234.025 7.31729 235.356 7.49272 236.534 7.84357C237.713 8.18543 238.716 8.66673 239.544 9.28746C240.371 9.89921 241.001 10.6189 241.433 11.4466C241.874 12.2652 242.094 13.1558 242.094 14.1184V28.3145H235.131V25.3997H234.969C234.555 26.1734 234.052 26.7986 233.458 27.2754C232.873 27.7522 232.203 28.0985 231.447 28.3145C230.7 28.5304 229.877 28.6383 228.978 28.6383ZM231.407 23.9423C231.973 23.9423 232.504 23.8253 232.999 23.5914C233.503 23.3575 233.912 23.0202 234.227 22.5794C234.542 22.1386 234.699 21.6033 234.699 20.9735V19.2463C234.501 19.3272 234.29 19.4037 234.065 19.4757C233.849 19.5476 233.615 19.6151 233.363 19.6781C233.12 19.7411 232.86 19.7995 232.581 19.8535C232.311 19.9075 232.027 19.957 231.731 20.002C231.155 20.0919 230.682 20.2404 230.314 20.4473C229.954 20.6452 229.684 20.8926 229.504 21.1895C229.333 21.4773 229.248 21.8012 229.248 22.161C229.248 22.7368 229.45 23.1776 229.855 23.4835C230.26 23.7894 230.777 23.9423 231.407 23.9423ZM251.202 16.6554V28.3145H243.753V7.58718H250.824V11.5275H251.04C251.49 10.2141 252.282 9.18401 253.415 8.43732C254.558 7.69064 255.889 7.31729 257.41 7.31729C258.876 7.31729 260.149 7.65465 261.228 8.32937C262.317 8.99509 263.158 9.9127 263.752 11.0822C264.355 12.2517 264.651 13.5877 264.642 15.09V28.3145H257.194V16.6554C257.203 15.6298 256.942 14.8246 256.411 14.2399C255.889 13.6551 255.16 13.3627 254.225 13.3627C253.613 13.3627 253.078 13.4977 252.619 13.7676C252.169 14.0285 251.823 14.4063 251.58 14.9011C251.337 15.3869 251.211 15.9716 251.202 16.6554ZM273.869 16.6554V28.3145H266.42V7.58718H273.491V11.5275H273.707C274.156 10.2141 274.948 9.18401 276.082 8.43732C277.224 7.69064 278.556 7.31729 280.076 7.31729C281.542 7.31729 282.815 7.65465 283.895 8.32937C284.983 8.99509 285.824 9.9127 286.418 11.0822C287.021 12.2517 287.318 13.5877 287.309 15.09V28.3145H279.86V16.6554C279.869 15.6298 279.608 14.8246 279.077 14.2399C278.556 13.6551 277.827 13.3627 276.891 13.3627C276.28 13.3627 275.744 13.4977 275.285 13.7676C274.836 14.0285 274.489 14.4063 274.246 14.9011C274.003 15.3869 273.878 15.9716 273.869 16.6554ZM299.018 28.6923C296.805 28.6923 294.898 28.2695 293.296 27.4238C291.704 26.5692 290.476 25.3457 289.612 23.7534C288.758 22.152 288.33 20.2359 288.33 18.0048C288.33 15.8637 288.762 13.9925 289.626 12.3912C290.489 10.7898 291.708 9.54386 293.283 8.65323C294.857 7.76261 296.715 7.31729 298.856 7.31729C300.421 7.31729 301.838 7.56019 303.107 8.04599C304.375 8.53178 305.459 9.23798 306.359 10.1646C307.258 11.0822 307.951 12.1977 308.437 13.5112C308.923 14.8246 309.166 16.3045 309.166 17.9508V19.6781H290.651V15.5758H302.311C302.302 14.9821 302.149 14.4603 301.852 14.0105C301.564 13.5517 301.172 13.1963 300.678 12.9444C300.192 12.6835 299.639 12.5531 299.018 12.5531C298.415 12.5531 297.862 12.6835 297.358 12.9444C296.854 13.1963 296.449 13.5472 296.144 13.997C295.847 14.4468 295.689 14.9731 295.671 15.5758V20.002C295.671 20.6677 295.811 21.2614 296.09 21.7832C296.369 22.305 296.769 22.7143 297.291 23.0112C297.812 23.3081 298.442 23.4565 299.18 23.4565C299.693 23.4565 300.16 23.3845 300.583 23.2406C301.015 23.0966 301.384 22.8897 301.69 22.6199C301.996 22.341 302.221 22.0081 302.364 21.6213H309.166C308.932 23.0607 308.378 24.3111 307.506 25.3727C306.633 26.4252 305.477 27.2439 304.038 27.8287C302.607 28.4044 300.934 28.6923 299.018 28.6923ZM310.305 28.3145V7.58718H317.538V11.5275H317.754C318.132 10.0701 318.73 9.00408 319.549 8.32937C320.376 7.65465 321.344 7.31729 322.45 7.31729C322.774 7.31729 323.093 7.34428 323.408 7.39826C323.732 7.44324 324.042 7.51071 324.339 7.60067V13.9565C323.97 13.8306 323.516 13.7361 322.976 13.6731C322.437 13.6101 321.973 13.5787 321.586 13.5787C320.858 13.5787 320.201 13.7451 319.616 14.0779C319.041 14.4018 318.586 14.8606 318.253 15.4544C317.921 16.0391 317.754 16.7273 317.754 17.519V28.3145H310.305ZM8.96023 71.3145H0.863636L9.9858 43.6781H20.2415L29.3636 71.3145H21.267L15.2216 51.2889H15.0057L8.96023 71.3145ZM7.44886 60.411H22.6705V66.0247H7.44886V60.411ZM30.2333 79.0872V50.5872H37.6282V54.2037H37.7902C38.0601 53.502 38.4559 52.8587 38.9777 52.274C39.4994 51.6802 40.1472 51.2079 40.9208 50.8571C41.6945 50.4972 42.5941 50.3173 43.6197 50.3173C44.9871 50.3173 46.2871 50.6816 47.5196 51.4103C48.761 52.139 49.7686 53.286 50.5423 54.8514C51.325 56.4167 51.7163 58.4499 51.7163 60.9508C51.7163 63.3438 51.343 65.3275 50.5963 66.9018C49.8586 68.4761 48.869 69.6502 47.6275 70.4238C46.395 71.1975 45.0411 71.5843 43.5657 71.5843C42.5941 71.5843 41.726 71.4269 40.9613 71.112C40.2056 70.7882 39.5579 70.3519 39.0181 69.8031C38.4874 69.2453 38.078 68.6156 37.7902 67.9139H37.6822V79.0872H30.2333ZM37.5203 60.9508C37.5203 61.9584 37.6507 62.831 37.9116 63.5687C38.1815 64.2974 38.5593 64.8642 39.0451 65.269C39.5399 65.6648 40.1292 65.8627 40.8129 65.8627C41.4966 65.8627 42.0769 65.6693 42.5537 65.2825C43.0395 64.8867 43.4083 64.3244 43.6602 63.5957C43.9211 62.858 44.0515 61.9764 44.0515 60.9508C44.0515 59.9252 43.9211 59.0481 43.6602 58.3194C43.4083 57.5817 43.0395 57.0195 42.5537 56.6326C42.0769 56.2368 41.4966 56.0389 40.8129 56.0389C40.1292 56.0389 39.5399 56.2368 39.0451 56.6326C38.5593 57.0195 38.1815 57.5817 37.9116 58.3194C37.6507 59.0481 37.5203 59.9252 37.5203 60.9508ZM52.9369 79.0872V50.5872H60.3317V54.2037H60.4937C60.7636 53.502 61.1594 52.8587 61.6812 52.274C62.203 51.6802 62.8507 51.2079 63.6244 50.8571C64.398 50.4972 65.2977 50.3173 66.3232 50.3173C67.6907 50.3173 68.9906 50.6816 70.2231 51.4103C71.4646 52.139 72.4721 53.286 73.2458 54.8514C74.0285 56.4167 74.4198 58.4499 74.4198 60.9508C74.4198 63.3438 74.0465 65.3275 73.2998 66.9018C72.5621 68.4761 71.5725 69.6502 70.331 70.4238C69.0986 71.1975 67.7446 71.5843 66.2692 71.5843C65.2977 71.5843 64.4295 71.4269 63.6648 71.112C62.9092 70.7882 62.2614 70.3519 61.7217 69.8031C61.1909 69.2453 60.7816 68.6156 60.4937 67.9139H60.3857V79.0872H52.9369ZM60.2238 60.9508C60.2238 61.9584 60.3542 62.831 60.6151 63.5687C60.885 64.2974 61.2629 64.8642 61.7487 65.269C62.2434 65.6648 62.8327 65.8627 63.5164 65.8627C64.2001 65.8627 64.7804 65.6693 65.2572 65.2825C65.743 64.8867 66.1118 64.3244 66.3637 63.5957C66.6246 62.858 66.755 61.9764 66.755 60.9508C66.755 59.9252 66.6246 59.0481 66.3637 58.3194C66.1118 57.5817 65.743 57.0195 65.2572 56.6326C64.7804 56.2368 64.2001 56.0389 63.5164 56.0389C62.8327 56.0389 62.2434 56.2368 61.7487 56.6326C61.2629 57.0195 60.885 57.5817 60.6151 58.3194C60.3542 59.0481 60.2238 59.9252 60.2238 60.9508ZM93.7255 50.5872V55.9849H79.8533V50.5872H93.7255ZM82.4982 71.3145V49.9934C82.4982 48.2842 82.8041 46.8672 83.4158 45.7427C84.0275 44.6182 84.8912 43.777 86.0067 43.2193C87.1222 42.6615 88.4357 42.3826 89.9471 42.3826C90.8917 42.3826 91.8093 42.4546 92.6999 42.5985C93.5995 42.7425 94.2652 42.8684 94.6971 42.9764L93.6175 48.3201C93.3476 48.2392 93.0328 48.1762 92.6729 48.1312C92.3131 48.0772 91.9982 48.0502 91.7283 48.0502C91.0266 48.0502 90.5543 48.1987 90.3114 48.4956C90.0685 48.7924 89.9471 49.1838 89.9471 49.6696V71.3145H82.4982ZM104.055 71.6923C101.806 71.6923 99.8804 71.247 98.2791 70.3564C96.6778 69.4567 95.4498 68.2063 94.5952 66.6049C93.7405 64.9946 93.3132 63.1279 93.3132 61.0048C93.3132 58.8817 93.7405 57.0195 94.5952 55.4181C95.4498 53.8078 96.6778 52.5573 98.2791 51.6667C99.8804 50.7671 101.806 50.3173 104.055 50.3173C106.304 50.3173 108.229 50.7671 109.83 51.6667C111.432 52.5573 112.66 53.8078 113.514 55.4181C114.369 57.0195 114.796 58.8817 114.796 61.0048C114.796 63.1279 114.369 64.9946 113.514 66.6049C112.66 68.2063 111.432 69.4567 109.83 70.3564C108.229 71.247 106.304 71.6923 104.055 71.6923ZM104.109 66.1866C104.738 66.1866 105.283 65.9752 105.741 65.5524C106.2 65.1296 106.556 64.5268 106.808 63.7441C107.059 62.9615 107.185 62.0304 107.185 60.9508C107.185 59.8623 107.059 58.9312 106.808 58.1575C106.556 57.3748 106.2 56.7721 105.741 56.3493C105.283 55.9264 104.738 55.715 104.109 55.715C103.443 55.715 102.872 55.9264 102.395 56.3493C101.918 56.7721 101.554 57.3748 101.302 58.1575C101.05 58.9312 100.924 59.8623 100.924 60.9508C100.924 62.0304 101.05 62.9615 101.302 63.7441C101.554 64.5268 101.918 65.1296 102.395 65.5524C102.872 65.9752 103.443 66.1866 104.109 66.1866ZM115.919 71.3145V50.5872H123.152V54.5275H123.368C123.746 53.0701 124.344 52.0041 125.162 51.3294C125.99 50.6547 126.957 50.3173 128.064 50.3173C128.388 50.3173 128.707 50.3443 129.022 50.3983C129.346 50.4432 129.656 50.5107 129.953 50.6007V56.9565C129.584 56.8306 129.13 56.7361 128.59 56.6731C128.05 56.6101 127.587 56.5787 127.2 56.5787C126.471 56.5787 125.815 56.7451 125.23 57.0779C124.654 57.4018 124.2 57.8606 123.867 58.4544C123.534 59.0391 123.368 59.7273 123.368 60.519V71.3145H115.919ZM148.527 50.5872V55.9849H134.87V50.5872H148.527ZM137.515 45.6213H144.964V64.6483C144.964 64.9361 145.014 65.179 145.113 65.377C145.211 65.5659 145.364 65.7098 145.571 65.8088C145.778 65.8987 146.044 65.9437 146.367 65.9437C146.592 65.9437 146.853 65.9167 147.15 65.8627C147.456 65.8088 147.681 65.7638 147.825 65.7278L148.904 70.9636C148.572 71.0626 148.095 71.184 147.474 71.3279C146.862 71.4719 146.134 71.5663 145.288 71.6113C143.579 71.7013 142.144 71.5259 140.983 71.085C139.823 70.6352 138.95 69.929 138.365 68.9664C137.781 68.0038 137.497 66.7984 137.515 65.35V45.6213ZM157.56 59.6554V71.3145H150.111V43.6781H157.29V54.5275H157.506C157.974 53.2051 158.752 52.175 159.841 51.4373C160.929 50.6906 162.238 50.3173 163.768 50.3173C165.234 50.3173 166.507 50.6502 167.587 51.3159C168.675 51.9816 169.516 52.8992 170.11 54.0687C170.713 55.2382 171.01 56.5787 171.001 58.09V71.3145H163.552V59.6554C163.561 58.6298 163.304 57.8246 162.783 57.2399C162.27 56.6551 161.537 56.3627 160.583 56.3627C159.98 56.3627 159.45 56.4977 158.991 56.7676C158.541 57.0285 158.19 57.4063 157.938 57.9011C157.695 58.3869 157.569 58.9716 157.56 59.6554ZM182.71 71.6923C180.497 71.6923 178.589 71.2695 176.988 70.4238C175.396 69.5692 174.168 68.3457 173.304 66.7534C172.45 65.152 172.022 63.2359 172.022 61.0048C172.022 58.8637 172.454 56.9925 173.318 55.3912C174.181 53.7898 175.4 52.5439 176.975 51.6532C178.549 50.7626 180.407 50.3173 182.548 50.3173C184.113 50.3173 185.53 50.5602 186.798 51.046C188.067 51.5318 189.151 52.238 190.051 53.1646C190.95 54.0822 191.643 55.1977 192.129 56.5112C192.615 57.8246 192.857 59.3045 192.857 60.9508V62.6781H174.343V58.5758H186.002C185.993 57.9821 185.84 57.4603 185.544 57.0105C185.256 56.5517 184.864 56.1963 184.369 55.9444C183.884 55.6835 183.33 55.5531 182.71 55.5531C182.107 55.5531 181.554 55.6835 181.05 55.9444C180.546 56.1963 180.141 56.5472 179.835 56.997C179.539 57.4468 179.381 57.9731 179.363 58.5758V63.002C179.363 63.6677 179.503 64.2614 179.781 64.7832C180.06 65.305 180.461 65.7143 180.982 66.0112C181.504 66.3081 182.134 66.4565 182.872 66.4565C183.384 66.4565 183.852 66.3845 184.275 66.2406C184.707 66.0966 185.076 65.8897 185.382 65.6199C185.687 65.341 185.912 65.0081 186.056 64.6213H192.857C192.624 66.0607 192.07 67.3111 191.198 68.3727C190.325 69.4252 189.169 70.2439 187.73 70.8287C186.299 71.4044 184.626 71.6923 182.71 71.6923ZM199.559 71.3145V43.6781H219.477V49.7235H207.062V54.4735H218.451V60.519H207.062V65.269H219.423V71.3145H199.559ZM242.295 50.5872L235.332 71.3145H226.696L219.733 50.5872H227.559L230.906 64.2974H231.122L234.469 50.5872H242.295ZM251.815 71.6923C249.602 71.6923 247.695 71.2695 246.093 70.4238C244.501 69.5692 243.273 68.3457 242.409 66.7534C241.555 65.152 241.127 63.2359 241.127 61.0048C241.127 58.8637 241.559 56.9925 242.423 55.3912C243.286 53.7898 244.505 52.5439 246.08 51.6532C247.654 50.7626 249.512 50.3173 251.653 50.3173C253.218 50.3173 254.635 50.5602 255.904 51.046C257.172 51.5318 258.256 52.238 259.156 53.1646C260.055 54.0822 260.748 55.1977 261.234 56.5112C261.72 57.8246 261.962 59.3045 261.962 60.9508V62.6781H243.448V58.5758H255.107C255.098 57.9821 254.945 57.4603 254.649 57.0105C254.361 56.5517 253.969 56.1963 253.475 55.9444C252.989 55.6835 252.436 55.5531 251.815 55.5531C251.212 55.5531 250.659 55.6835 250.155 55.9444C249.651 56.1963 249.246 56.5472 248.94 56.997C248.644 57.4468 248.486 57.9731 248.468 58.5758V63.002C248.468 63.6677 248.608 64.2614 248.886 64.7832C249.165 65.305 249.566 65.7143 250.087 66.0112C250.609 66.3081 251.239 66.4565 251.977 66.4565C252.489 66.4565 252.957 66.3845 253.38 66.2406C253.812 66.0966 254.181 65.8897 254.487 65.6199C254.793 65.341 255.017 65.0081 255.161 64.6213H261.962C261.729 66.0607 261.175 67.3111 260.303 68.3727C259.43 69.4252 258.274 70.2439 256.835 70.8287C255.404 71.4044 253.731 71.6923 251.815 71.6923ZM270.551 59.6554V71.3145H263.102V50.5872H270.173V54.5275H270.389C270.839 53.2141 271.631 52.184 272.764 51.4373C273.907 50.6906 275.238 50.3173 276.758 50.3173C278.225 50.3173 279.498 50.6547 280.577 51.3294C281.666 51.9951 282.507 52.9127 283.101 54.0822C283.703 55.2517 284 56.5877 283.991 58.09V71.3145H276.542V59.6554C276.551 58.6298 276.291 57.8246 275.76 57.2399C275.238 56.6551 274.509 56.3627 273.574 56.3627C272.962 56.3627 272.427 56.4977 271.968 56.7676C271.518 57.0285 271.172 57.4063 270.929 57.9011C270.686 58.3869 270.56 58.9716 270.551 59.6554ZM298.129 50.5872V55.9849H284.473V50.5872H298.129ZM287.118 45.6213H294.567V64.6483C294.567 64.9361 294.616 65.179 294.715 65.377C294.814 65.5659 294.967 65.7098 295.174 65.8088C295.381 65.8987 295.646 65.9437 295.97 65.9437C296.195 65.9437 296.456 65.9167 296.753 65.8627C297.059 65.8088 297.284 65.7638 297.428 65.7278L298.507 70.9636C298.174 71.0626 297.697 71.184 297.077 71.3279C296.465 71.4719 295.736 71.5663 294.891 71.6113C293.181 71.7013 291.746 71.5259 290.586 71.085C289.425 70.6352 288.553 69.929 287.968 68.9664C287.383 68.0038 287.1 66.7984 287.118 65.35V45.6213ZM1.78125 114.314V86.6781H13.7102C15.7614 86.6781 17.5561 87.0829 19.0945 87.8926C20.6328 88.7022 21.8293 89.8403 22.684 91.3066C23.5386 92.773 23.9659 94.4868 23.9659 96.448C23.9659 98.4271 23.5251 100.141 22.6435 101.589C21.7708 103.038 20.5429 104.153 18.9595 104.936C17.3852 105.719 15.5455 106.11 13.4403 106.11H6.31534V100.28H11.929C12.8106 100.28 13.5618 100.127 14.1825 99.8216C14.8123 99.5067 15.2936 99.0614 15.6264 98.4856C15.9683 97.9099 16.1392 97.2306 16.1392 96.448C16.1392 95.6563 15.9683 94.9816 15.6264 94.4238C15.2936 93.8571 14.8123 93.4252 14.1825 93.1284C13.5618 92.8225 12.8106 92.6696 11.929 92.6696H9.28409V114.314H1.78125ZM32.3756 86.6781V114.314H24.9267V86.6781H32.3756ZM40.0464 114.638C38.724 114.638 37.5545 114.422 36.5379 113.991C35.5303 113.55 34.7386 112.884 34.1629 111.993C33.5871 111.103 33.2993 109.969 33.2993 108.593C33.2993 107.459 33.4927 106.492 33.8795 105.692C34.2663 104.882 34.8061 104.221 35.4988 103.708C36.1915 103.195 36.9967 102.804 37.9143 102.534C38.8409 102.264 39.8395 102.089 40.9101 102.008C42.0706 101.918 43.0017 101.81 43.7034 101.684C44.4141 101.549 44.9269 101.364 45.2417 101.131C45.5566 100.888 45.714 100.568 45.714 100.172V100.118C45.714 99.5787 45.5071 99.1648 45.0933 98.877C44.6795 98.5891 44.1487 98.4451 43.501 98.4451C42.7903 98.4451 42.21 98.6026 41.7602 98.9174C41.3194 99.2233 41.054 99.6956 40.964 100.334H34.1089C34.1989 99.0749 34.5992 97.9144 35.3099 96.8528C36.0296 95.7823 37.0777 94.9276 38.4541 94.2889C39.8305 93.6412 41.5488 93.3173 43.6089 93.3173C45.0933 93.3173 46.4247 93.4927 47.6032 93.8436C48.7817 94.1854 49.7848 94.6667 50.6125 95.2875C51.4401 95.8992 52.0699 96.6189 52.5017 97.4466C52.9425 98.2652 53.1629 99.1558 53.1629 100.118V114.314H46.1998V111.4H46.0379C45.6241 112.173 45.1203 112.799 44.5265 113.275C43.9418 113.752 43.2716 114.099 42.5159 114.314C41.7692 114.53 40.946 114.638 40.0464 114.638ZM42.4754 109.942C43.0422 109.942 43.5729 109.825 44.0677 109.591C44.5715 109.358 44.9808 109.02 45.2957 108.579C45.6106 108.139 45.768 107.603 45.768 106.974V105.246C45.5701 105.327 45.3587 105.404 45.1338 105.476C44.9179 105.548 44.684 105.615 44.4321 105.678C44.1892 105.741 43.9283 105.8 43.6494 105.854C43.3795 105.907 43.0961 105.957 42.7993 106.002C42.2235 106.092 41.7512 106.24 41.3824 106.447C41.0225 106.645 40.7526 106.893 40.5727 107.189C40.4018 107.477 40.3163 107.801 40.3163 108.161C40.3163 108.737 40.5187 109.178 40.9235 109.483C41.3284 109.789 41.8457 109.942 42.4754 109.942ZM62.2709 102.655V114.314H54.822V93.5872H61.893V97.5275H62.1089C62.5588 96.2141 63.3504 95.184 64.4839 94.4373C65.6265 93.6906 66.9579 93.3173 68.4783 93.3173C69.9446 93.3173 71.2176 93.6547 72.2972 94.3294C73.3857 94.9951 74.2268 95.9127 74.8206 97.0822C75.4233 98.2517 75.7202 99.5877 75.7112 101.09V114.314H68.2624V102.655C68.2714 101.63 68.0105 100.825 67.4797 100.24C66.9579 99.6551 66.2292 99.3627 65.2936 99.3627C64.6819 99.3627 64.1466 99.4977 63.6878 99.7676C63.238 100.028 62.8916 100.406 62.6487 100.901C62.4058 101.387 62.2799 101.972 62.2709 102.655ZM84.9373 102.655V114.314H77.4884V93.5872H84.5594V97.5275H84.7754C85.2252 96.2141 86.0168 95.184 87.1504 94.4373C88.2929 93.6906 89.6243 93.3173 91.1447 93.3173C92.6111 93.3173 93.884 93.6547 94.9636 94.3294C96.0521 94.9951 96.8933 95.9127 97.487 97.0822C98.0898 98.2517 98.3866 99.5877 98.3776 101.09V114.314H90.9288V102.655C90.9378 101.63 90.6769 100.825 90.1461 100.24C89.6243 99.6551 88.8956 99.3627 87.96 99.3627C87.3483 99.3627 86.813 99.4977 86.3542 99.7676C85.9044 100.028 85.558 100.406 85.3151 100.901C85.0722 101.387 84.9463 101.972 84.9373 102.655ZM100.155 114.314V93.5872H107.604V114.314H100.155ZM103.879 91.4281C102.872 91.4281 102.008 91.0952 101.288 90.4295C100.569 89.7638 100.209 88.9631 100.209 88.0275C100.209 87.0919 100.569 86.2913 101.288 85.6255C102.008 84.9598 102.872 84.627 103.879 84.627C104.896 84.627 105.759 84.9598 106.47 85.6255C107.19 86.2913 107.55 87.0919 107.55 88.0275C107.55 88.9631 107.19 89.7638 106.47 90.4295C105.759 91.0952 104.896 91.4281 103.879 91.4281ZM116.948 102.655V114.314H109.499V93.5872H116.57V97.5275H116.786C117.236 96.2141 118.027 95.184 119.161 94.4373C120.303 93.6906 121.635 93.3173 123.155 93.3173C124.622 93.3173 125.895 93.6547 126.974 94.3294C128.063 94.9951 128.904 95.9127 129.498 97.0822C130.1 98.2517 130.397 99.5877 130.388 101.09V114.314H122.939V102.655C122.948 101.63 122.687 100.825 122.157 100.24C121.635 99.6551 120.906 99.3627 119.971 99.3627C119.359 99.3627 118.824 99.4977 118.365 99.7676C117.915 100.028 117.569 100.406 117.326 100.901C117.083 101.387 116.957 101.972 116.948 102.655ZM142.151 122.519C140.073 122.519 138.292 122.222 136.807 121.628C135.332 121.044 134.185 120.234 133.366 119.199C132.557 118.174 132.102 116.995 132.003 115.664H139.182C139.254 116.105 139.434 116.46 139.722 116.73C140.01 117 140.379 117.193 140.829 117.31C141.288 117.436 141.8 117.499 142.367 117.499C143.33 117.499 144.126 117.265 144.756 116.797C145.394 116.33 145.714 115.484 145.714 114.26V110.752H145.498C145.228 111.454 144.814 112.052 144.256 112.547C143.699 113.032 143.028 113.406 142.246 113.667C141.463 113.919 140.604 114.045 139.668 114.045C138.193 114.045 136.834 113.703 135.593 113.019C134.36 112.335 133.371 111.251 132.624 109.767C131.886 108.282 131.518 106.344 131.518 103.951C131.518 101.45 131.904 99.4167 132.678 97.8514C133.461 96.286 134.468 95.139 135.701 94.4103C136.942 93.6816 138.247 93.3173 139.614 93.3173C140.64 93.3173 141.539 93.4972 142.313 93.8571C143.087 94.2079 143.735 94.6802 144.256 95.274C144.778 95.8587 145.174 96.502 145.444 97.2037H145.606V93.5872H153.055V114.26C153.055 116.015 152.6 117.504 151.692 118.727C150.792 119.96 149.524 120.9 147.886 121.547C146.249 122.195 144.337 122.519 142.151 122.519ZM142.421 108.755C143.105 108.755 143.69 108.566 144.175 108.188C144.67 107.801 145.048 107.252 145.309 106.542C145.579 105.822 145.714 104.958 145.714 103.951C145.714 102.925 145.579 102.048 145.309 101.319C145.048 100.582 144.67 100.019 144.175 99.6326C143.69 99.2368 143.105 99.0389 142.421 99.0389C141.737 99.0389 141.153 99.2368 140.667 99.6326C140.19 100.019 139.821 100.582 139.56 101.319C139.308 102.048 139.182 102.925 139.182 103.951C139.182 104.976 139.308 105.849 139.56 106.569C139.821 107.279 140.19 107.824 140.667 108.202C141.153 108.57 141.737 108.755 142.421 108.755ZM168.008 86.6781V114.314H160.505V86.6781H168.008ZM177.221 102.655V114.314H169.772V93.5872H176.843V97.5275H177.059C177.509 96.2141 178.3 95.184 179.434 94.4373C180.576 93.6906 181.908 93.3173 183.428 93.3173C184.895 93.3173 186.168 93.6547 187.247 94.3294C188.336 94.9951 189.177 95.9127 189.771 97.0822C190.373 98.2517 190.67 99.5877 190.661 101.09V114.314H183.212V102.655C183.221 101.63 182.96 100.825 182.43 100.24C181.908 99.6551 181.179 99.3627 180.244 99.3627C179.632 99.3627 179.097 99.4977 178.638 99.7676C178.188 100.028 177.842 100.406 177.599 100.901C177.356 101.387 177.23 101.972 177.221 102.655ZM199.941 114.584C198.466 114.584 197.107 114.198 195.866 113.424C194.634 112.65 193.644 111.476 192.897 109.902C192.16 108.327 191.791 106.344 191.791 103.951C191.791 101.45 192.178 99.4167 192.951 97.8514C193.734 96.286 194.741 95.139 195.974 94.4103C197.215 93.6816 198.52 93.3173 199.887 93.3173C200.913 93.3173 201.812 93.4972 202.586 93.8571C203.36 94.2079 204.008 94.6802 204.529 95.274C205.051 95.8587 205.447 96.502 205.717 97.2037H205.825V86.6781H213.274V114.314H205.879V110.914H205.717C205.429 111.616 205.015 112.245 204.475 112.803C203.945 113.352 203.297 113.788 202.532 114.112C201.776 114.427 200.913 114.584 199.941 114.584ZM202.694 108.863C203.378 108.863 203.963 108.665 204.448 108.269C204.943 107.864 205.321 107.297 205.582 106.569C205.852 105.831 205.987 104.958 205.987 103.951C205.987 102.925 205.852 102.048 205.582 101.319C205.321 100.582 204.943 100.019 204.448 99.6326C203.963 99.2368 203.378 99.0389 202.694 99.0389C202.01 99.0389 201.426 99.2368 200.94 99.6326C200.463 100.019 200.094 100.582 199.833 101.319C199.581 102.048 199.455 102.925 199.455 103.951C199.455 104.976 199.581 105.858 199.833 106.596C200.094 107.324 200.463 107.887 200.94 108.282C201.426 108.669 202.01 108.863 202.694 108.863ZM228.471 105.246V93.5872H235.92V114.314H228.849V110.374H228.633C228.183 111.697 227.396 112.731 226.271 113.478C225.147 114.215 223.811 114.584 222.264 114.584C220.815 114.584 219.547 114.251 218.458 113.586C217.379 112.92 216.537 112.002 215.935 110.833C215.341 109.663 215.04 108.323 215.031 106.812V93.5872H222.479V105.246C222.488 106.272 222.749 107.077 223.262 107.662C223.784 108.247 224.513 108.539 225.448 108.539C226.069 108.539 226.604 108.408 227.054 108.148C227.513 107.878 227.864 107.5 228.107 107.014C228.358 106.519 228.48 105.93 228.471 105.246ZM256.754 100.334H249.899C249.863 99.9115 249.715 99.5472 249.454 99.2413C249.193 98.9354 248.856 98.7015 248.442 98.5396C248.037 98.3687 247.587 98.2832 247.092 98.2832C246.454 98.2832 245.905 98.4002 245.446 98.6341C244.987 98.868 244.762 99.2008 244.771 99.6326C244.762 99.9385 244.893 100.222 245.163 100.483C245.442 100.744 245.977 100.946 246.769 101.09L250.979 101.846C253.102 102.233 254.681 102.885 255.715 103.802C256.759 104.711 257.285 105.93 257.294 107.459C257.285 108.935 256.844 110.217 255.972 111.305C255.108 112.385 253.925 113.221 252.423 113.815C250.929 114.4 249.225 114.692 247.308 114.692C244.142 114.692 241.663 114.045 239.873 112.749C238.092 111.454 237.098 109.744 236.891 107.621H244.286C244.385 108.278 244.708 108.786 245.257 109.146C245.815 109.497 246.517 109.672 247.362 109.672C248.046 109.672 248.608 109.555 249.049 109.322C249.499 109.088 249.728 108.755 249.737 108.323C249.728 107.927 249.53 107.612 249.144 107.378C248.766 107.144 248.172 106.956 247.362 106.812L243.692 106.164C241.578 105.795 239.994 105.093 238.942 104.059C237.889 103.024 237.368 101.693 237.377 100.064C237.368 98.6251 237.745 97.4061 238.51 96.4075C239.284 95.3999 240.386 94.6352 241.816 94.1135C243.256 93.5827 244.96 93.3173 246.931 93.3173C249.926 93.3173 252.288 93.938 254.015 95.1795C255.751 96.421 256.664 98.1393 256.754 100.334ZM270.609 93.5872V98.9849H256.953V93.5872H270.609ZM259.598 88.6213H267.046V107.648C267.046 107.936 267.096 108.179 267.195 108.377C267.294 108.566 267.447 108.71 267.654 108.809C267.861 108.899 268.126 108.944 268.45 108.944C268.675 108.944 268.936 108.917 269.233 108.863C269.538 108.809 269.763 108.764 269.907 108.728L270.987 113.964C270.654 114.063 270.177 114.184 269.556 114.328C268.945 114.472 268.216 114.566 267.37 114.611C265.661 114.701 264.226 114.526 263.066 114.085C261.905 113.635 261.033 112.929 260.448 111.966C259.863 111.004 259.58 109.798 259.598 108.35V88.6213ZM271.749 114.314V93.5872H278.982V97.5275H279.197C279.575 96.0701 280.174 95.0041 280.992 94.3294C281.82 93.6547 282.787 93.3173 283.893 93.3173C284.217 93.3173 284.537 93.3443 284.852 93.3983C285.175 93.4432 285.486 93.5107 285.783 93.6007V99.9565C285.414 99.8306 284.96 99.7361 284.42 99.6731C283.88 99.6101 283.417 99.5787 283.03 99.5787C282.301 99.5787 281.644 99.7451 281.06 100.078C280.484 100.402 280.03 100.861 279.697 101.454C279.364 102.039 279.197 102.727 279.197 103.519V114.314H271.749ZM291.49 122.087C290.635 122.087 289.821 122.02 289.048 121.885C288.274 121.759 287.595 121.583 287.01 121.358L288.629 116.069C289.241 116.285 289.799 116.424 290.303 116.487C290.815 116.55 291.252 116.514 291.612 116.379C291.98 116.244 292.246 115.988 292.408 115.61L292.57 115.232L285.283 93.5872H293.055L296.402 107.945H296.618L300.019 93.5872H307.845L300.288 116.042C299.911 117.184 299.362 118.21 298.642 119.118C297.931 120.036 296.996 120.76 295.835 121.291C294.675 121.822 293.226 122.087 291.49 122.087Z" fill="url(#paint0_linear_3_2445)"/>
<defs>
<linearGradient id="paint0_linear_3_2445" x1="169" y1="-6.68555" x2="169" y2="125.498" gradientUnits="userSpaceOnUse">
<stop stop-color="#DD73A8"/>
<stop offset="0.391284" stop-color="#A895BC"/>
<stop offset="0.815" stop-color="#08171C"/>
<stop offset="1" stop-color="#4F5EA1"/>
</linearGradient>
</defs>
</svg>
