
<svg width="232" height="54" viewBox="0 0 232 54" fill="none" xmlns="http://www.w3.org/2000/svg">
<path d="M111.81 19.8273C112.482 20.1055 113.113 20.4783 113.685 20.935C114.275 21.4079 114.767 21.9966 115.132 22.6667C115.54 23.4933 115.734 24.4136 115.695 25.3391C115.73 26.1106 115.596 26.8803 115.304 27.5922C115.011 28.3041 114.568 28.9402 114.005 29.4542C112.547 30.5655 110.747 31.1003 108.936 30.9605C104.903 30.9605 102.682 29.5734 102.273 26.7992L105.652 25.7746C105.649 25.996 105.683 26.2164 105.752 26.4263C105.829 26.6447 105.978 26.8285 106.174 26.9458C106.481 27.1197 106.817 27.2334 107.165 27.2808C107.758 27.3704 108.357 27.4091 108.956 27.3966C109.57 27.4167 110.184 27.3509 110.781 27.2009C111.142 27.1107 111.48 26.9416 111.772 26.705C111.972 26.5372 112.116 26.3093 112.183 26.0533C112.232 25.82 112.257 25.5819 112.256 25.3432C112.273 24.975 112.207 24.6077 112.065 24.2693C111.919 23.9887 111.706 23.7504 111.446 23.5766C111.095 23.3387 110.716 23.145 110.32 22.9997C109.869 22.8327 109.32 22.6134 108.675 22.348L107.864 21.9904C107.301 21.7537 106.681 21.5057 106.011 21.2404C105.354 20.9844 104.739 20.6282 104.186 20.1839C103.603 19.7083 103.117 19.1199 102.755 18.4522C102.345 17.6261 102.152 16.7055 102.192 15.7798C102.154 15.0046 102.286 14.2305 102.579 13.5145C102.871 12.7984 103.316 12.1587 103.882 11.6422C105.348 10.5161 107.163 9.97453 108.99 10.1185C112.97 10.1185 115.178 11.4902 115.613 14.2336L112.241 15.2972C112.243 15.0701 112.209 14.8442 112.141 14.6281C112.069 14.4046 111.916 14.2183 111.713 14.1086C111.409 13.9517 111.081 13.8478 110.744 13.8012C110.159 13.7089 109.568 13.6685 108.976 13.6803C108.36 13.6606 107.744 13.7264 107.146 13.876C106.778 13.9715 106.435 14.1461 106.138 14.3883C105.93 14.5621 105.78 14.7982 105.71 15.0636C105.658 15.299 105.632 15.5395 105.631 15.7809C105.617 16.1477 105.686 16.5129 105.831 16.8486C105.973 17.1303 106.185 17.369 106.445 17.5413C106.797 17.7775 107.175 17.971 107.571 18.1182C108.022 18.2913 108.557 18.5045 109.176 18.7699L109.987 19.0875L111.81 19.8273Z" fill="#86BE56"/>
<path d="M138.083 24.9889C136.961 27.4257 134.963 29.3237 132.507 30.2864C130.051 31.249 127.327 31.2017 124.904 30.1543C123.687 29.6352 122.581 28.8763 121.649 27.9205C120.736 26.9642 120.01 25.8381 119.509 24.6026C118.983 23.3247 118.716 21.9503 118.726 20.5633C118.715 19.163 118.981 17.7748 119.509 16.483C120.008 15.2429 120.734 14.1123 121.649 13.1528C122.587 12.1821 123.705 11.4127 124.937 10.8895C126.169 10.3663 127.49 10.0997 128.824 10.1055C130.791 10.0778 132.722 10.6502 134.371 11.7501C135.966 12.8027 137.243 14.2893 138.06 16.0435L134.681 17.1112C134.095 16.0837 133.264 15.2258 132.265 14.6181C131.248 13.9834 130.077 13.6536 128.886 13.6662C127.99 13.6595 127.102 13.8423 126.278 14.2031C124.673 14.8977 123.397 16.209 122.724 17.8561C122.204 19.1167 122.062 20.5074 122.317 21.8507C122.572 23.1941 123.211 24.4293 124.154 25.3988C124.762 26.0252 125.483 26.5249 126.277 26.8702C127.101 27.2291 127.989 27.4098 128.885 27.401C130.075 27.4127 131.245 27.0849 132.264 26.4542C133.268 25.8363 134.1 24.964 134.68 23.9212L138.083 24.9889Z" fill="#C6D66A"/>
<path d="M161.015 10.1104V30.9544H157.54V28.3978C156.631 29.1935 155.6 29.8293 154.488 30.2791C153.331 30.7456 152.098 30.9807 150.855 30.9718C149.489 30.9821 148.136 30.7051 146.879 30.1582C144.43 29.1076 142.48 27.1142 141.45 24.6065C140.918 23.3301 140.647 21.9552 140.656 20.5672C140.646 19.1658 140.916 17.7772 141.45 16.4869C142.226 14.5902 143.534 12.9722 145.208 11.838C146.883 10.7037 148.848 10.1042 150.855 10.1155C152.097 10.1056 153.33 10.3368 154.488 10.7969C155.598 11.2406 156.629 11.8682 157.54 12.6546V10.1165L161.015 10.1104ZM150.838 27.4274C151.735 27.4361 152.625 27.2554 153.451 26.8966C154.247 26.5529 154.971 26.053 155.58 25.4252C156.526 24.4577 157.168 23.2228 157.423 21.8788C157.679 20.5349 157.537 19.1433 157.016 17.8825C156.34 16.2322 155.061 14.9186 153.451 14.2234C152.221 13.6907 150.864 13.5456 149.553 13.8066C148.242 14.0676 147.036 14.7228 146.09 15.6887C145.478 16.316 144.991 17.0585 144.654 17.8754C144.31 18.7073 144.129 19.6005 144.122 20.5039C144.115 21.4074 144.282 22.3034 144.613 23.1408C144.944 23.9782 145.433 24.7405 146.052 25.3842C146.671 26.028 147.407 26.5405 148.219 26.8925C149.048 27.2469 149.94 27.4237 150.838 27.412V27.4274Z" fill="#F4DE61"/>
<path d="M174.977 10.1107C176.969 10.1041 178.918 10.7017 180.578 11.8283C182.239 12.9548 183.537 14.5599 184.309 16.4411C184.829 17.7212 185.097 19.0942 185.097 20.4809C185.097 21.8676 184.829 23.2406 184.309 24.5207C183.537 26.402 182.239 28.007 180.578 29.1336C178.918 30.2601 176.969 30.8577 174.977 30.8512C173.741 30.8623 172.514 30.6253 171.367 30.1534C170.259 29.6946 169.233 29.051 168.331 28.2485V39.9575H164.856V10.1107H168.331V12.6785C169.236 11.8872 170.262 11.2537 171.367 10.8033C172.515 10.3359 173.741 10.1007 174.977 10.1107ZM174.977 27.2904C175.867 27.2975 176.749 27.1168 177.568 26.7596C178.348 26.4104 179.057 25.9132 179.657 25.2943C180.268 24.6742 180.754 23.9367 181.087 23.1241C181.439 22.2826 181.618 21.3755 181.611 20.4599C181.615 19.5588 181.436 18.6667 181.087 17.8398C180.752 17.0263 180.266 16.2873 179.656 15.6644C179.053 15.0549 178.345 14.5657 177.567 14.2217C176.746 13.8725 175.866 13.6927 174.976 13.6927C174.087 13.6927 173.207 13.8725 172.386 14.2217C171.602 14.571 170.888 15.066 170.28 15.6818C169.673 16.3065 169.189 17.0451 168.855 17.8572C168.506 18.6842 168.327 19.5763 168.331 20.4773C168.324 21.3929 168.503 22.3 168.855 23.1415C169.188 23.9528 169.672 24.6899 170.28 25.3118C170.886 25.9313 171.601 26.4287 172.386 26.7781C173.206 27.1289 174.088 27.3033 174.977 27.2904Z" fill="#F6B85F"/>
<path d="M207.157 25.7033C206.291 27.2842 205.032 28.6021 203.508 29.5233C201.938 30.4863 200.138 30.983 198.308 30.9579C196.942 30.9681 195.589 30.6912 194.332 30.1443C191.892 29.0886 189.946 27.1054 188.903 24.611C188.369 23.3351 188.096 21.9601 188.103 20.5717C188.093 19.1704 188.363 17.7817 188.897 16.4915C189.677 14.6003 190.983 12.9866 192.653 11.852C194.323 10.7174 196.282 10.1123 198.286 10.1123C200.289 10.1123 202.248 10.7174 203.918 11.852C205.588 12.9866 206.894 14.6003 207.674 16.4915C208.21 17.7813 208.482 19.1699 208.474 20.5717C208.469 21.2882 208.402 22.0028 208.274 22.7072H191.974C192.405 24.0675 193.245 25.2532 194.374 26.0947C195.509 26.9701 196.896 27.435 198.316 27.4166C199.385 27.4273 200.441 27.1698 201.391 26.6665C202.304 26.1916 203.093 25.499 203.691 24.6469L207.157 25.7033ZM198.305 13.6715C197.535 13.67 196.772 13.8127 196.052 14.0927C195.345 14.364 194.687 14.7539 194.105 15.2465C193.525 15.7344 193.03 16.32 192.641 16.9782C192.24 17.6387 191.957 18.3675 191.807 19.13H204.907C204.754 18.3658 204.465 17.6367 204.057 16.9782C203.651 16.3259 203.15 15.7417 202.57 15.2465C201.986 14.7533 201.325 14.3633 200.616 14.0927C199.882 13.8071 199.102 13.6643 198.316 13.6715H198.305Z" fill="#ED9054"/>
<path d="M221.299 19.8284C221.971 20.1067 222.602 20.4795 223.174 20.9361C223.764 21.409 224.256 21.9977 224.621 22.6678C225.032 23.4934 225.226 24.4144 225.184 25.3402C225.221 26.112 225.088 26.8825 224.796 27.5948C224.503 28.307 224.059 28.9429 223.494 29.4553C222.037 30.5666 220.237 31.1014 218.425 30.9616C214.389 30.9575 212.166 29.5745 211.757 26.8127L215.136 25.7624C215.133 25.9838 215.167 26.2042 215.236 26.4141C215.315 26.633 215.467 26.8167 215.664 26.9336C215.971 27.1084 216.307 27.2221 216.655 27.2686C217.246 27.3582 217.843 27.3969 218.44 27.3844C219.054 27.4045 219.668 27.3387 220.265 27.1887C220.627 27.0997 220.965 26.9304 221.256 26.6928C221.458 26.5267 221.602 26.2981 221.667 26.0411C221.718 25.808 221.745 25.5699 221.746 25.331C221.76 24.9621 221.692 24.5947 221.546 24.2571C221.4 23.9778 221.189 23.7398 220.932 23.5644C220.58 23.3282 220.202 23.1346 219.806 22.9875C219.355 22.8205 218.806 22.6012 218.161 22.3358L217.35 21.9782C216.787 21.7415 216.167 21.4936 215.497 21.2282C214.828 20.9644 214.203 20.5967 213.644 20.1379C213.062 19.6607 212.577 19.0726 212.213 18.4062C211.804 17.58 211.61 16.6595 211.65 15.7338C211.612 14.9584 211.745 14.1842 212.038 13.4682C212.33 12.7521 212.776 12.1124 213.342 11.5962C214.807 10.4737 216.618 9.93242 218.442 10.0725C222.425 10.0725 224.633 11.4442 225.065 14.1876L221.686 15.2553C221.688 15.0282 221.654 14.8023 221.586 14.5862C221.515 14.3627 221.361 14.1763 221.158 14.0667C220.854 13.9098 220.526 13.8059 220.189 13.7593C219.604 13.667 219.013 13.6266 218.421 13.6384C217.807 13.6183 217.193 13.6841 216.596 13.8341C216.227 13.9296 215.881 14.1042 215.582 14.3464C215.376 14.5216 215.226 14.7572 215.154 15.0217C215.102 15.2571 215.076 15.4976 215.075 15.739C215.062 16.1058 215.13 16.471 215.275 16.8067C215.42 17.0886 215.633 17.3272 215.895 17.4994C216.238 17.7354 216.607 17.9291 216.995 18.0762C217.446 18.2494 217.981 18.4626 218.6 18.7279L219.411 19.0456L221.299 19.8284Z" fill="#E75858"/>
<path d="M21.5 10.1095C22.6762 10.0943 23.8376 10.38 24.879 10.9405C25.8848 11.4879 26.7754 12.2331 27.5 13.1333C28.2323 14.0503 28.8041 15.0904 29.19 16.2074C29.5822 17.2979 29.7853 18.4502 29.79 19.6124V30.9545H26.312V19.6083C26.3074 18.1489 25.8387 16.7309 24.977 15.569C24.5603 15.02 24.0417 14.561 23.451 14.2185C22.8668 13.8624 22.1987 13.6767 21.519 13.6815C20.8425 13.6774 20.1766 13.854 19.587 14.1939C18.987 14.5317 18.4555 14.9839 18.021 15.526C17.5801 16.0847 17.2349 16.7159 17 17.3929C16.7611 18.0383 16.6371 18.7223 16.634 19.4126V30.9545H13.173V19.6083C13.1734 18.8872 13.0554 18.1712 12.824 17.4903C12.5947 16.8054 12.2569 16.1639 11.824 15.5915C11.4092 15.0366 10.8925 14.5702 10.303 14.2185C9.7146 13.8628 9.04312 13.6773 8.36 13.6815C7.68184 13.6769 7.01421 13.8534 6.423 14.1939C5.82691 14.5376 5.29964 14.9937 4.869 15.5383C4.42804 16.0923 4.0815 16.7186 3.844 17.3909C3.60306 18.0359 3.47707 18.7199 3.472 19.4105V30.9545H0V19.4126C0.00557461 18.2806 0.215789 17.1594 0.62 16.1059C1.02646 15.0186 1.60709 14.0084 2.338 13.1169C3.07031 12.2187 3.96979 11.4789 4.984 10.9405C6.02723 10.385 7.18735 10.0997 8.363 10.1095C9.69084 10.0895 10.9964 10.46 12.125 11.1772C13.2291 11.8707 14.1726 12.8022 14.89 13.907C15.632 12.8052 16.5913 11.8753 17.706 11.1772C18.8468 10.4558 20.1657 10.0852 21.506 10.1095H21.5Z" fill="#E36CA5"/>
<path d="M99.121 0.369141V30.9548H95.646V28.3982C94.7363 29.1927 93.7052 29.8283 92.594 30.2795C91.4369 30.7449 90.2039 30.98 88.961 30.9722C87.6065 30.9795 86.265 30.7026 85.019 30.1586C82.5626 29.1104 80.6052 27.1172 79.567 24.6069C79.0364 23.3301 78.7678 21.9552 78.778 20.5676C78.7662 19.1666 79.0347 17.7779 79.567 16.4873C80.6024 13.9793 82.5509 11.9834 84.999 10.9233C86.2462 10.3839 87.5872 10.1092 88.941 10.1159C90.183 10.1071 91.4155 10.3383 92.574 10.7973C93.6831 11.2424 94.714 11.8699 95.626 12.655V0.369141H99.121ZM88.984 27.4053C89.8796 27.4134 90.7673 27.2327 91.592 26.8745C92.3858 26.5292 93.1067 26.0295 93.715 25.4031C94.6578 24.4337 95.2974 23.1986 95.5523 21.8552C95.8071 20.5118 95.6657 19.1211 95.146 17.8604C94.4598 16.2088 93.1665 14.9005 91.546 14.2187C90.3194 13.6867 88.9659 13.542 87.6586 13.803C86.3513 14.0641 85.1498 14.719 84.208 15.684C83.6015 16.3077 83.1195 17.0466 82.789 17.8594C82.4435 18.7087 82.2656 19.6198 82.2656 20.5399C82.2656 21.4601 82.4435 22.3711 82.789 23.2205C83.4664 24.8644 84.7407 26.1743 86.343 26.8735C87.1649 27.2313 88.0499 27.4119 88.943 27.4042L88.984 27.4053Z" fill="#6CC1D1"/>
<path d="M78.1371 24.0286C77.9378 24.8116 77.6951 25.5824 77.4101 26.3372C77.1352 27.0113 76.7977 27.6567 76.4021 28.2646C76.334 28.3711 76.2459 28.4627 76.1429 28.534C76.0399 28.6052 75.924 28.6547 75.8021 28.6796C75.5512 28.7251 75.2928 28.6693 75.0811 28.5238L74.4731 28.0678C74.2726 27.9274 74.1345 27.7113 74.0892 27.4668C74.0438 27.2224 74.0948 26.9694 74.2311 26.7634C74.5456 26.2826 74.8152 25.7725 75.0361 25.2397C75.2601 24.6372 75.4481 24.0212 75.5991 23.3953C75.6492 23.1898 75.7651 23.0075 75.9283 22.8775C76.0914 22.7474 76.2924 22.6772 76.4991 22.678C76.563 22.6724 76.6272 22.6724 76.6911 22.678L77.4171 22.8338C77.5389 22.8596 77.6544 22.9103 77.7568 22.9828C77.8591 23.0552 77.9462 23.148 78.0129 23.2556C78.0796 23.3632 78.1245 23.4835 78.145 23.6092C78.1654 23.7349 78.1611 23.8636 78.1321 23.9876L78.1371 24.0286Z" fill="#53AECD"/>
<path d="M36.314 9.87881C36.2372 9.77541 36.1812 9.65739 36.1492 9.53162C36.1173 9.40584 36.1101 9.27482 36.128 9.14616C36.1459 9.01757 36.1897 8.89421 36.2567 8.78394C36.3236 8.67368 36.4123 8.57893 36.517 8.50574C37.1561 8.03519 37.8242 7.60735 38.517 7.22489C39.1494 6.8903 39.8114 6.61788 40.494 6.4113C40.7373 6.3386 40.9987 6.36771 41.221 6.49225C41.3296 6.55233 41.425 6.63448 41.5016 6.73368C41.5781 6.83287 41.634 6.94702 41.666 7.06914L41.857 7.80793C41.9194 8.04728 41.8877 8.30214 41.7688 8.51783C41.6499 8.73353 41.4533 8.89289 41.221 8.96172C40.6784 9.12268 40.1523 9.33715 39.65 9.60214C39.099 9.91019 38.5685 10.2552 38.062 10.635C37.8993 10.7584 37.7014 10.8233 37.499 10.8195C37.3566 10.82 37.216 10.7871 37.0881 10.7231C36.9601 10.6591 36.8482 10.5659 36.761 10.4506L36.314 9.87881Z" fill="#A273A8"/>
<path d="M64.207 33.2635V34.0197C64.2027 34.1496 64.1727 34.2772 64.1187 34.3948C64.0648 34.5125 63.9881 34.6176 63.8932 34.7039C63.7984 34.7901 63.6874 34.8557 63.567 34.8966C63.4466 34.9376 63.3194 34.953 63.193 34.9419C62.4081 34.8703 61.6278 34.7526 60.856 34.5894C60.1619 34.4282 59.4847 34.1982 58.834 33.9029C58.7182 33.8522 58.6136 33.778 58.5265 33.6849C58.4394 33.5917 58.3715 33.4815 58.327 33.3608C58.2426 33.1158 58.2548 32.8467 58.361 32.6108L58.676 31.9242C58.7523 31.7607 58.8721 31.6225 59.0215 31.5256C59.171 31.4286 59.3441 31.3768 59.521 31.376C59.6509 31.3745 59.7796 31.4021 59.898 31.457C60.4115 31.7028 60.9474 31.896 61.498 32.0339C62.1151 32.1621 62.7398 32.2487 63.368 32.2931C63.6016 32.3164 63.818 32.4293 63.9736 32.6093C64.1293 32.7894 64.2126 33.0231 64.207 33.2635Z" fill="#53AECD"/>
<path d="M34.917 14.0343C34.6013 14.5144 34.3317 15.0247 34.112 15.558C33.8848 16.1594 33.6967 16.7756 33.549 17.4025C33.4989 17.6079 33.383 17.7903 33.2198 17.9203C33.0567 18.0503 32.8557 18.1206 32.649 18.1197C32.5826 18.1288 32.5154 18.1288 32.449 18.1197L31.722 17.9701C31.4782 17.9136 31.2662 17.7605 31.1323 17.5443C30.9983 17.3282 30.9533 17.0664 31.007 16.8163C31.2052 16.0324 31.4497 15.2614 31.739 14.5077C32.0121 13.8343 32.347 13.189 32.739 12.5803C32.808 12.4729 32.8973 12.3808 33.0018 12.3095C33.1062 12.2382 33.2236 12.1892 33.347 12.1653C33.596 12.1208 33.8522 12.1766 34.062 12.3211L34.67 12.7658C34.8595 12.9065 34.9903 13.1153 35.0361 13.3505C35.0819 13.5857 35.0393 13.8299 34.917 14.0343Z" fill="#A273A8"/>
<path d="M44.9311 7.50147V6.74014C44.9353 6.61025 44.9654 6.48262 45.0193 6.36501C45.0733 6.24739 45.15 6.14225 45.2449 6.05599C45.3397 5.96972 45.4507 5.90413 45.5711 5.8632C45.6915 5.82228 45.8187 5.80687 45.9451 5.81793C46.7303 5.88385 47.5108 5.99952 48.2821 6.16427C48.9775 6.32636 49.6563 6.55626 50.3091 6.8508C50.4241 6.90257 50.5278 6.97741 50.6141 7.0709C50.7004 7.1644 50.7676 7.27465 50.8117 7.39517C50.8558 7.51569 50.8759 7.64403 50.8708 7.77263C50.8657 7.90123 50.8355 8.02748 50.7821 8.14395L50.4551 8.83663C50.385 9.00587 50.2683 9.15055 50.1193 9.25299C49.9703 9.35543 49.7955 9.41121 49.6161 9.41352C49.488 9.41231 49.3615 9.38478 49.2441 9.33257C48.7299 9.08413 48.192 8.89081 47.6391 8.75568C47.0238 8.6283 46.4012 8.5417 45.7751 8.49643C45.5363 8.47425 45.3151 8.35832 45.1578 8.17288C45.0005 7.98745 44.9192 7.74687 44.9311 7.50147Z" fill="#A273A8"/>
<path d="M72.8141 30.9022C72.8912 31.0049 72.9473 31.1225 72.979 31.2479C73.0107 31.3734 73.0175 31.5041 72.9988 31.6322C72.9801 31.7604 72.9364 31.8834 72.8703 31.9939C72.8042 32.1044 72.7171 32.2001 72.6141 32.2752C71.9733 32.7432 71.3054 33.1709 70.6141 33.5561C69.9814 33.894 69.3174 34.1665 68.6321 34.3697C68.5118 34.4069 68.3854 34.419 68.2605 34.4051C68.1356 34.3911 68.0147 34.3516 67.9051 34.2887C67.689 34.1633 67.5293 33.9563 67.4601 33.7118L67.2691 32.9669C67.2067 32.7276 67.2384 32.4727 67.3573 32.257C67.4762 32.0413 67.6728 31.8819 67.9051 31.8131C68.4489 31.6557 68.9753 31.4411 69.4761 31.1727C70.0301 30.8666 70.5627 30.5215 71.0701 30.1398C71.2321 30.0151 71.4305 29.9502 71.6331 29.9554C71.7744 29.9557 71.9139 29.9892 72.0407 30.0531C72.1676 30.117 72.2785 30.2098 72.3651 30.3243L72.8141 30.9022Z" fill="#53AECD"/>
<path d="M64.3099 30.7876C62.1117 30.7887 59.9728 30.0576 58.2154 28.7045C56.4581 27.3514 55.1776 25.4497 54.5669 23.2859C53.8818 25.6848 52.3755 27.7502 50.3243 29.103C48.2731 30.4558 45.8146 31.0053 43.3999 30.6507C40.9852 30.2962 38.7763 29.0612 37.1784 27.1726C35.5806 25.2839 34.7009 22.8682 34.7009 20.3686C34.7009 17.8691 35.5806 15.4533 37.1784 13.5647C38.7763 11.676 40.9852 10.4411 43.3999 10.0865C45.8146 9.73193 48.2731 10.2815 50.3243 11.6343C52.3755 12.9871 53.8818 15.0524 54.5669 17.4514C55.0968 15.6022 56.1183 13.9406 57.5172 12.6523C58.9161 11.3641 60.6372 10.5 62.4879 10.1568C64.3387 9.81354 66.2461 10.0047 67.9969 10.7088C69.7477 11.4129 71.2728 12.6023 72.4016 14.1438C73.5304 15.6854 74.2184 17.5183 74.3887 19.4377C74.5589 21.357 74.2047 23.287 73.3656 25.0118C72.5265 26.7366 71.2357 28.1882 69.6375 29.2043C68.0393 30.2203 66.1967 30.7607 64.3159 30.765L64.3099 30.7876Z" fill="url(#paint0_linear_3_2424)"/>
<path d="M185.828 47.7788C185.945 47.7788 186.049 47.8242 186.14 47.9148L186.988 48.8348C186.519 49.4162 185.94 49.8615 185.252 50.1708C184.569 50.4802 183.748 50.6348 182.788 50.6348C181.929 50.6348 181.156 50.4882 180.468 50.1948C179.785 49.9015 179.201 49.4935 178.716 48.9708C178.231 48.4482 177.857 47.8242 177.596 47.0988C177.34 46.3735 177.212 45.5815 177.212 44.7228C177.212 43.8535 177.351 43.0588 177.628 42.3388C177.905 41.6135 178.295 40.9895 178.796 40.4668C179.303 39.9442 179.905 39.5388 180.604 39.2508C181.303 38.9575 182.076 38.8108 182.924 38.8108C183.767 38.8108 184.513 38.9495 185.164 39.2268C185.82 39.5042 186.377 39.8668 186.836 40.3148L186.116 41.3148C186.073 41.3788 186.017 41.4348 185.948 41.4828C185.884 41.5308 185.793 41.5548 185.676 41.5548C185.596 41.5548 185.513 41.5335 185.428 41.4908C185.343 41.4428 185.249 41.3868 185.148 41.3228C185.047 41.2535 184.929 41.1788 184.796 41.0988C184.663 41.0188 184.508 40.9468 184.332 40.8828C184.156 40.8135 183.951 40.7575 183.716 40.7148C183.487 40.6668 183.22 40.6428 182.916 40.6428C182.399 40.6428 181.924 40.7362 181.492 40.9228C181.065 41.1042 180.697 41.3708 180.388 41.7228C180.079 42.0695 179.839 42.4962 179.668 43.0028C179.497 43.5042 179.412 44.0775 179.412 44.7228C179.412 45.3735 179.503 45.9522 179.684 46.4588C179.871 46.9655 180.121 47.3922 180.436 47.7388C180.751 48.0855 181.121 48.3522 181.548 48.5388C181.975 48.7202 182.433 48.8108 182.924 48.8108C183.217 48.8108 183.481 48.7948 183.716 48.7628C183.956 48.7308 184.175 48.6802 184.372 48.6108C184.575 48.5415 184.764 48.4535 184.94 48.3468C185.121 48.2348 185.3 48.0988 185.476 47.9388C185.529 47.8908 185.585 47.8535 185.644 47.8268C185.703 47.7948 185.764 47.7788 185.828 47.7788ZM192.486 47.0028C191.915 47.0295 191.435 47.0802 191.046 47.1548C190.657 47.2242 190.345 47.3148 190.11 47.4268C189.875 47.5388 189.707 47.6695 189.606 47.8188C189.505 47.9682 189.454 48.1308 189.454 48.3068C189.454 48.6535 189.555 48.9015 189.758 49.0508C189.966 49.2002 190.235 49.2748 190.566 49.2748C190.971 49.2748 191.321 49.2028 191.614 49.0588C191.913 48.9095 192.203 48.6855 192.486 48.3868V47.0028ZM187.958 43.4428C188.902 42.5788 190.038 42.1468 191.366 42.1468C191.846 42.1468 192.275 42.2268 192.654 42.3868C193.033 42.5415 193.353 42.7602 193.614 43.0428C193.875 43.3202 194.073 43.6535 194.206 44.0428C194.345 44.4322 194.414 44.8588 194.414 45.3228V50.5068H193.518C193.331 50.5068 193.187 50.4802 193.086 50.4268C192.985 50.3682 192.905 50.2535 192.846 50.0828L192.67 49.4908C192.462 49.6775 192.259 49.8428 192.062 49.9868C191.865 50.1255 191.659 50.2428 191.446 50.3388C191.233 50.4348 191.003 50.5068 190.758 50.5548C190.518 50.6082 190.251 50.6348 189.958 50.6348C189.611 50.6348 189.291 50.5895 188.998 50.4988C188.705 50.4028 188.451 50.2615 188.238 50.0748C188.025 49.8882 187.859 49.6562 187.742 49.3788C187.625 49.1015 187.566 48.7788 187.566 48.4108C187.566 48.2028 187.601 47.9975 187.67 47.7948C187.739 47.5868 187.851 47.3895 188.006 47.2028C188.166 47.0162 188.371 46.8402 188.622 46.6748C188.873 46.5095 189.179 46.3655 189.542 46.2428C189.91 46.1202 190.337 46.0215 190.822 45.9468C191.307 45.8668 191.862 45.8188 192.486 45.8028V45.3228C192.486 44.7735 192.369 44.3682 192.134 44.1068C191.899 43.8402 191.561 43.7068 191.118 43.7068C190.798 43.7068 190.531 43.7442 190.318 43.8188C190.11 43.8935 189.926 43.9788 189.766 44.0748C189.606 44.1655 189.459 44.2482 189.326 44.3228C189.198 44.3975 189.054 44.4348 188.894 44.4348C188.755 44.4348 188.638 44.4002 188.542 44.3308C188.446 44.2562 188.369 44.1708 188.31 44.0748L187.958 43.4428ZM196.275 50.5068V42.2988H197.483C197.739 42.2988 197.907 42.4188 197.987 42.6588L198.115 43.2668C198.259 43.1068 198.408 42.9602 198.563 42.8268C198.723 42.6935 198.891 42.5788 199.067 42.4828C199.248 42.3868 199.44 42.3122 199.643 42.2588C199.851 42.2002 200.078 42.1708 200.323 42.1708C200.84 42.1708 201.264 42.3122 201.595 42.5948C201.931 42.8722 202.182 43.2428 202.347 43.7068C202.475 43.4348 202.635 43.2028 202.827 43.0108C203.019 42.8135 203.23 42.6535 203.459 42.5308C203.688 42.4082 203.931 42.3175 204.187 42.2588C204.448 42.2002 204.71 42.1708 204.971 42.1708C205.424 42.1708 205.827 42.2402 206.179 42.3788C206.531 42.5175 206.827 42.7202 207.067 42.9868C207.307 43.2535 207.488 43.5788 207.611 43.9628C207.739 44.3468 207.803 44.7868 207.803 45.2828V50.5068H205.827V45.2828C205.827 44.7602 205.712 44.3682 205.483 44.1068C205.254 43.8402 204.918 43.7068 204.475 43.7068C204.272 43.7068 204.083 43.7415 203.907 43.8108C203.736 43.8802 203.584 43.9815 203.451 44.1148C203.323 44.2428 203.222 44.4055 203.147 44.6028C203.072 44.8002 203.035 45.0268 203.035 45.2828V50.5068H201.051V45.2828C201.051 44.7335 200.939 44.3335 200.715 44.0828C200.496 43.8322 200.174 43.7068 199.747 43.7068C199.459 43.7068 199.19 43.7788 198.939 43.9228C198.694 44.0615 198.464 44.2535 198.251 44.4988V50.5068H196.275ZM214.969 45.4588C214.969 45.2028 214.932 44.9628 214.857 44.7388C214.788 44.5095 214.681 44.3095 214.537 44.1388C214.393 43.9682 214.209 43.8348 213.985 43.7388C213.767 43.6375 213.511 43.5868 213.217 43.5868C212.647 43.5868 212.196 43.7495 211.865 44.0748C211.54 44.4002 211.332 44.8615 211.241 45.4588H214.969ZM211.201 46.6508C211.233 47.0722 211.308 47.4375 211.425 47.7468C211.543 48.0508 211.697 48.3042 211.889 48.5068C212.081 48.7042 212.308 48.8535 212.569 48.9548C212.836 49.0508 213.129 49.0988 213.449 49.0988C213.769 49.0988 214.044 49.0615 214.273 48.9868C214.508 48.9122 214.711 48.8295 214.881 48.7388C215.057 48.6482 215.209 48.5655 215.337 48.4908C215.471 48.4162 215.599 48.3788 215.721 48.3788C215.887 48.3788 216.009 48.4402 216.089 48.5628L216.657 49.2828C216.439 49.5388 216.193 49.7548 215.921 49.9308C215.649 50.1015 215.364 50.2402 215.065 50.3468C214.772 50.4482 214.471 50.5202 214.161 50.5628C213.857 50.6055 213.561 50.6268 213.273 50.6268C212.703 50.6268 212.172 50.5335 211.681 50.3468C211.191 50.1548 210.764 49.8748 210.401 49.5068C210.039 49.1335 209.753 48.6748 209.545 48.1308C209.337 47.5815 209.233 46.9468 209.233 46.2268C209.233 45.6668 209.324 45.1415 209.505 44.6508C209.687 44.1548 209.945 43.7255 210.281 43.3628C210.623 42.9948 211.036 42.7042 211.521 42.4908C212.012 42.2775 212.564 42.1708 213.177 42.1708C213.695 42.1708 214.172 42.2535 214.609 42.4188C215.047 42.5842 215.423 42.8268 215.737 43.1468C216.052 43.4615 216.297 43.8508 216.473 44.3148C216.655 44.7735 216.745 45.2988 216.745 45.8908C216.745 46.1895 216.713 46.3922 216.649 46.4988C216.585 46.6002 216.463 46.6508 216.281 46.6508H211.201ZM220.092 43.7228C220.348 43.2322 220.652 42.8482 221.004 42.5708C221.356 42.2882 221.772 42.1468 222.252 42.1468C222.631 42.1468 222.935 42.2295 223.164 42.3948L223.036 43.8748C223.01 43.9708 222.97 44.0402 222.916 44.0828C222.868 44.1202 222.802 44.1388 222.716 44.1388C222.636 44.1388 222.516 44.1255 222.356 44.0988C222.202 44.0722 222.05 44.0588 221.9 44.0588C221.682 44.0588 221.487 44.0908 221.316 44.1548C221.146 44.2188 220.991 44.3122 220.852 44.4348C220.719 44.5522 220.599 44.6962 220.492 44.8668C220.391 45.0375 220.295 45.2322 220.204 45.4508V50.5068H218.228V42.2988H219.388C219.591 42.2988 219.732 42.3362 219.812 42.4108C219.892 42.4802 219.946 42.6082 219.972 42.7948L220.092 43.7228ZM228.424 47.0028C227.853 47.0295 227.373 47.0802 226.984 47.1548C226.594 47.2242 226.282 47.3148 226.048 47.4268C225.813 47.5388 225.645 47.6695 225.544 47.8188C225.442 47.9682 225.392 48.1308 225.392 48.3068C225.392 48.6535 225.493 48.9015 225.696 49.0508C225.904 49.2002 226.173 49.2748 226.504 49.2748C226.909 49.2748 227.258 49.2028 227.552 49.0588C227.85 48.9095 228.141 48.6855 228.424 48.3868V47.0028ZM223.896 43.4428C224.84 42.5788 225.976 42.1468 227.304 42.1468C227.784 42.1468 228.213 42.2268 228.592 42.3868C228.97 42.5415 229.29 42.7602 229.552 43.0428C229.813 43.3202 230.01 43.6535 230.144 44.0428C230.282 44.4322 230.352 44.8588 230.352 45.3228V50.5068H229.456C229.269 50.5068 229.125 50.4802 229.024 50.4268C228.922 50.3682 228.842 50.2535 228.784 50.0828L228.608 49.4908C228.4 49.6775 228.197 49.8428 228 49.9868C227.802 50.1255 227.597 50.2428 227.384 50.3388C227.17 50.4348 226.941 50.5068 226.696 50.5548C226.456 50.6082 226.189 50.6348 225.896 50.6348C225.549 50.6348 225.229 50.5895 224.936 50.4988C224.642 50.4028 224.389 50.2615 224.176 50.0748C223.962 49.8882 223.797 49.6562 223.68 49.3788C223.562 49.1015 223.504 48.7788 223.504 48.4108C223.504 48.2028 223.538 47.9975 223.608 47.7948C223.677 47.5868 223.789 47.3895 223.944 47.2028C224.104 47.0162 224.309 46.8402 224.56 46.6748C224.81 46.5095 225.117 46.3655 225.48 46.2428C225.848 46.1202 226.274 46.0215 226.76 45.9468C227.245 45.8668 227.8 45.8188 228.424 45.8028V45.3228C228.424 44.7735 228.306 44.3682 228.072 44.1068C227.837 43.8402 227.498 43.7068 227.056 43.7068C226.736 43.7068 226.469 43.7442 226.256 43.8188C226.048 43.8935 225.864 43.9788 225.704 44.0748C225.544 44.1655 225.397 44.2482 225.264 44.3228C225.136 44.3975 224.992 44.4348 224.832 44.4348C224.693 44.4348 224.576 44.4002 224.48 44.3308C224.384 44.2562 224.306 44.1708 224.248 44.0748L223.896 43.4428Z" fill="black"/>
<defs>
<linearGradient id="paint0_linear_3_2424" x1="34.6612" y1="20.4053" x2="74.47" y2="20.4053" gradientUnits="userSpaceOnUse">
<stop stop-color="#7466A4"/>
<stop offset="0.5" stop-color="#4F5EA1"/>
<stop offset="1" stop-color="#53ACCD"/>
</linearGradient>
</defs>
</svg>
